<svg width="360" height="327" viewBox="0 0 360 327" fill="none" xmlns="http://www.w3.org/2000/svg">
<g clip-path="url(#clip0_3603_2)">
<path d="M190.986 31.7273V4.45454H192.733V31.7273H190.986ZM196.451 12.9134C196.338 11.9048 195.869 11.1236 195.045 10.5696C194.221 10.0085 193.184 9.72798 191.934 9.72798C191.039 9.72798 190.265 9.87003 189.612 10.1541C188.958 10.4311 188.45 10.8146 188.088 11.3047C187.733 11.7876 187.556 12.3381 187.556 12.956C187.556 13.4744 187.676 13.9219 187.918 14.2983C188.166 14.6747 188.49 14.9908 188.887 15.2464C189.292 15.495 189.725 15.7045 190.187 15.875C190.649 16.0384 191.093 16.1733 191.519 16.2798L193.649 16.8338C194.345 17.0043 195.059 17.2351 195.791 17.5263C196.522 17.8175 197.2 18.201 197.825 18.6768C198.45 19.1527 198.955 19.7422 199.338 20.4453C199.729 21.1484 199.924 21.9901 199.924 22.9702C199.924 24.206 199.605 25.3033 198.965 26.2621C198.333 27.2209 197.414 27.9773 196.206 28.5312C195.006 29.0852 193.553 29.3622 191.849 29.3622C190.215 29.3622 188.802 29.103 187.609 28.5845C186.416 28.0661 185.482 27.331 184.807 26.3793C184.132 25.4205 183.759 24.2841 183.688 22.9702H186.991C187.055 23.7585 187.311 24.4155 187.758 24.9411C188.213 25.4595 188.791 25.8466 189.494 26.1023C190.205 26.3509 190.982 26.4751 191.828 26.4751C192.758 26.4751 193.585 26.3295 194.31 26.0384C195.041 25.7401 195.617 25.3281 196.036 24.8026C196.455 24.2699 196.664 23.6484 196.664 22.9382C196.664 22.2919 196.48 21.7628 196.11 21.3509C195.748 20.9389 195.254 20.598 194.629 20.3281C194.012 20.0582 193.312 19.8203 192.531 19.6143L189.953 18.9112C188.205 18.4354 186.82 17.7358 185.798 16.8125C184.782 15.8892 184.274 14.6676 184.274 13.1477C184.274 11.8906 184.615 10.7933 185.297 9.85582C185.979 8.91832 186.902 8.19034 188.067 7.67188C189.232 7.14631 190.546 6.88352 192.009 6.88352C193.486 6.88352 194.789 7.14276 195.919 7.66122C197.055 8.17969 197.95 8.89347 198.603 9.80256C199.257 10.7045 199.597 11.7415 199.626 12.9134H196.451ZM211.932 29.2983C210.405 29.2983 209.055 29.0355 207.884 28.5099C206.719 27.9844 205.806 27.2599 205.146 26.3366C204.485 25.4134 204.158 24.3622 204.165 23.1832C204.158 22.2599 204.347 21.4112 204.73 20.6371C205.121 19.8558 205.65 19.206 206.317 18.6875C206.985 18.1619 207.731 17.8281 208.555 17.6861V17.5582C207.468 17.2955 206.598 16.7131 205.945 15.8111C205.291 14.9091 204.968 13.8722 204.975 12.7003C204.968 11.5852 205.263 10.5909 205.859 9.71733C206.463 8.83665 207.29 8.14418 208.342 7.63991C209.393 7.13565 210.589 6.88352 211.932 6.88352C213.26 6.88352 214.446 7.1392 215.49 7.65057C216.541 8.15483 217.369 8.8473 217.972 9.72798C218.576 10.6016 218.881 11.5923 218.888 12.7003C218.881 13.8722 218.548 14.9091 217.887 15.8111C217.227 16.7131 216.367 17.2955 215.309 17.5582V17.6861C216.126 17.8281 216.861 18.1619 217.514 18.6875C218.175 19.206 218.7 19.8558 219.091 20.6371C219.489 21.4112 219.691 22.2599 219.698 23.1832C219.691 24.3622 219.357 25.4134 218.697 26.3366C218.036 27.2599 217.12 27.9844 215.948 28.5099C214.783 29.0355 213.445 29.2983 211.932 29.2983ZM211.932 26.603C212.834 26.603 213.615 26.4538 214.276 26.1555C214.936 25.8501 215.447 25.4276 215.81 24.8878C216.172 24.3409 216.357 23.7017 216.364 22.9702C216.357 22.2102 216.158 21.5391 215.767 20.9567C215.384 20.3743 214.862 19.9162 214.201 19.5824C213.54 19.2486 212.784 19.0817 211.932 19.0817C211.072 19.0817 210.309 19.2486 209.641 19.5824C208.974 19.9162 208.448 20.3743 208.065 20.9567C207.681 21.5391 207.493 22.2102 207.5 22.9702C207.493 23.7017 207.667 24.3409 208.022 24.8878C208.384 25.4276 208.899 25.8501 209.567 26.1555C210.234 26.4538 211.023 26.603 211.932 26.603ZM211.932 16.4503C212.656 16.4503 213.299 16.3047 213.86 16.0135C214.421 15.7223 214.862 15.3175 215.181 14.799C215.508 14.2805 215.675 13.6733 215.682 12.9773C215.675 12.2955 215.511 11.6989 215.192 11.1875C214.879 10.6761 214.442 10.282 213.881 10.005C213.32 9.72088 212.67 9.57883 211.932 9.57883C211.179 9.57883 210.518 9.72088 209.95 10.005C209.389 10.282 208.952 10.6761 208.64 11.1875C208.327 11.6989 208.175 12.2955 208.182 12.9773C208.175 13.6733 208.331 14.2805 208.651 14.799C208.97 15.3175 209.411 15.7223 209.972 16.0135C210.54 16.3047 211.193 16.4503 211.932 16.4503ZM231.887 29.2983C230.36 29.2983 229.01 29.0355 227.839 28.5099C226.674 27.9844 225.761 27.2599 225.101 26.3366C224.44 25.4134 224.113 24.3622 224.121 23.1832C224.113 22.2599 224.302 21.4112 224.685 20.6371C225.076 19.8558 225.605 19.206 226.273 18.6875C226.94 18.1619 227.686 17.8281 228.51 17.6861V17.5582C227.423 17.2955 226.553 16.7131 225.9 15.8111C225.246 14.9091 224.923 13.8722 224.93 12.7003C224.923 11.5852 225.218 10.5909 225.814 9.71733C226.418 8.83665 227.246 8.14418 228.297 7.63991C229.348 7.13565 230.545 6.88352 231.887 6.88352C233.215 6.88352 234.401 7.1392 235.445 7.65057C236.496 8.15483 237.324 8.8473 237.927 9.72798C238.531 10.6016 238.836 11.5923 238.844 12.7003C238.836 13.8722 238.503 14.9091 237.842 15.8111C237.182 16.7131 236.322 17.2955 235.264 17.5582V17.6861C236.081 17.8281 236.816 18.1619 237.469 18.6875C238.13 19.206 238.655 19.8558 239.046 20.6371C239.444 21.4112 239.646 22.2599 239.653 23.1832C239.646 24.3622 239.312 25.4134 238.652 26.3366C237.991 27.2599 237.075 27.9844 235.903 28.5099C234.738 29.0355 233.4 29.2983 231.887 29.2983ZM231.887 26.603C232.789 26.603 233.57 26.4538 234.231 26.1555C234.891 25.8501 235.403 25.4276 235.765 24.8878C236.127 24.3409 236.312 23.7017 236.319 22.9702C236.312 22.2102 236.113 21.5391 235.722 20.9567C235.339 20.3743 234.817 19.9162 234.156 19.5824C233.496 19.2486 232.739 19.0817 231.887 19.0817C231.028 19.0817 230.264 19.2486 229.596 19.5824C228.929 19.9162 228.403 20.3743 228.02 20.9567C227.636 21.5391 227.448 22.2102 227.455 22.9702C227.448 23.7017 227.622 24.3409 227.977 24.8878C228.339 25.4276 228.854 25.8501 229.522 26.1555C230.189 26.4538 230.978 26.603 231.887 26.603ZM231.887 16.4503C232.611 16.4503 233.254 16.3047 233.815 16.0135C234.376 15.7223 234.817 15.3175 235.136 14.799C235.463 14.2805 235.63 13.6733 235.637 12.9773C235.63 12.2955 235.466 11.6989 235.147 11.1875C234.834 10.6761 234.398 10.282 233.836 10.005C233.275 9.72088 232.626 9.57883 231.887 9.57883C231.134 9.57883 230.474 9.72088 229.905 10.005C229.344 10.282 228.907 10.6761 228.595 11.1875C228.282 11.6989 228.13 12.2955 228.137 12.9773C228.13 13.6733 228.286 14.2805 228.606 14.799C228.925 15.3175 229.366 15.7223 229.927 16.0135C230.495 16.3047 231.148 16.4503 231.887 16.4503ZM248.012 26.017L247.852 27.1783C247.746 28.0305 247.565 28.9183 247.309 29.8416C247.06 30.772 246.801 31.6349 246.531 32.4304C246.268 33.2259 246.052 33.858 245.881 34.3267H243.623C243.715 33.8864 243.843 33.2898 244.006 32.5369C244.17 31.7912 244.33 30.9567 244.486 30.0334C244.642 29.1101 244.759 28.169 244.837 27.2102L244.944 26.017H248.012ZM260.318 29.2983C258.983 29.2983 257.782 29.0426 256.717 28.5312C255.659 28.0128 254.814 27.3026 254.182 26.4006C253.55 25.4986 253.212 24.4688 253.17 23.3111H256.366C256.444 24.2486 256.859 25.0192 257.612 25.6229C258.365 26.2266 259.267 26.5284 260.318 26.5284C261.156 26.5284 261.898 26.3366 262.545 25.9531C263.198 25.5625 263.709 25.0263 264.079 24.3445C264.455 23.6626 264.643 22.8849 264.643 22.0114C264.643 21.1236 264.452 20.3317 264.068 19.6357C263.684 18.9396 263.155 18.3928 262.481 17.995C261.813 17.5973 261.046 17.3949 260.18 17.3878C259.519 17.3878 258.855 17.5014 258.187 17.7287C257.52 17.956 256.98 18.2543 256.568 18.6236L253.553 18.1761L254.778 7.18182H266.774V10.005H257.516L256.824 16.1094H256.952C257.378 15.6974 257.942 15.353 258.645 15.076C259.356 14.799 260.116 14.6605 260.925 14.6605C262.253 14.6605 263.436 14.9766 264.473 15.6087C265.517 16.2408 266.337 17.1037 266.934 18.1974C267.537 19.2841 267.836 20.5341 267.829 21.9474C267.836 23.3608 267.516 24.6214 266.87 25.7294C266.231 26.8374 265.343 27.7109 264.206 28.3501C263.077 28.9822 261.781 29.2983 260.318 29.2983ZM280.316 29.3622C278.632 29.3551 277.194 28.9112 276.001 28.0305C274.808 27.1499 273.895 25.8679 273.263 24.1847C272.631 22.5014 272.315 20.4737 272.315 18.1016C272.315 15.7365 272.631 13.7159 273.263 12.0398C273.902 10.3636 274.819 9.08523 276.012 8.20455C277.212 7.32386 278.647 6.88352 280.316 6.88352C281.985 6.88352 283.416 7.32741 284.609 8.2152C285.802 9.09588 286.715 10.3743 287.347 12.0504C287.986 13.7195 288.306 15.7365 288.306 18.1016C288.306 20.4808 287.99 22.5121 287.358 24.1953C286.725 25.8714 285.813 27.1534 284.62 28.0412C283.426 28.9219 281.992 29.3622 280.316 29.3622ZM280.316 26.5178C281.793 26.5178 282.947 25.7969 283.778 24.3551C284.616 22.9134 285.035 20.8288 285.035 18.1016C285.035 16.2905 284.843 14.7599 284.46 13.5099C284.083 12.2528 283.54 11.3011 282.83 10.6548C282.127 10.0014 281.289 9.67471 280.316 9.67471C278.846 9.67471 277.691 10.3991 276.853 11.848C276.015 13.2969 275.593 15.3814 275.586 18.1016C275.586 19.9197 275.774 21.4574 276.15 22.7145C276.534 23.9645 277.077 24.9126 277.78 25.5589C278.483 26.1982 279.328 26.5178 280.316 26.5178ZM300.681 29.3622C298.998 29.3551 297.559 28.9112 296.366 28.0305C295.173 27.1499 294.26 25.8679 293.628 24.1847C292.996 22.5014 292.68 20.4737 292.68 18.1016C292.68 15.7365 292.996 13.7159 293.628 12.0398C294.268 10.3636 295.184 9.08523 296.377 8.20455C297.577 7.32386 299.012 6.88352 300.681 6.88352C302.35 6.88352 303.781 7.32741 304.974 8.2152C306.167 9.09588 307.08 10.3743 307.712 12.0504C308.351 13.7195 308.671 15.7365 308.671 18.1016C308.671 20.4808 308.355 22.5121 307.723 24.1953C307.091 25.8714 306.178 27.1534 304.985 28.0412C303.792 28.9219 302.357 29.3622 300.681 29.3622ZM300.681 26.5178C302.158 26.5178 303.312 25.7969 304.143 24.3551C304.981 22.9134 305.4 20.8288 305.4 18.1016C305.4 16.2905 305.209 14.7599 304.825 13.5099C304.449 12.2528 303.905 11.3011 303.195 10.6548C302.492 10.0014 301.654 9.67471 300.681 9.67471C299.211 9.67471 298.057 10.3991 297.219 11.848C296.381 13.2969 295.958 15.3814 295.951 18.1016C295.951 19.9197 296.139 21.4574 296.515 22.7145C296.899 23.9645 297.442 24.9126 298.145 25.5589C298.849 26.1982 299.694 26.5178 300.681 26.5178ZM314.801 29.2024C314.218 29.2024 313.718 28.9964 313.298 28.5845C312.879 28.1655 312.67 27.6612 312.67 27.0717C312.67 26.4893 312.879 25.9922 313.298 25.5803C313.718 25.1612 314.218 24.9517 314.801 24.9517C315.383 24.9517 315.884 25.1612 316.303 25.5803C316.722 25.9922 316.931 26.4893 316.931 27.0717C316.931 27.4624 316.832 27.821 316.633 28.1477C316.441 28.4673 316.186 28.723 315.866 28.9148C315.546 29.1065 315.191 29.2024 314.801 29.2024ZM328.96 29.2983C327.497 29.2983 326.19 29.0462 325.04 28.5419C323.896 28.0376 322.991 27.3381 322.323 26.4432C321.663 25.5412 321.308 24.4972 321.258 23.3111H324.603C324.646 23.9574 324.862 24.5185 325.253 24.9943C325.651 25.4631 326.169 25.8253 326.808 26.081C327.447 26.3366 328.158 26.4645 328.939 26.4645C329.798 26.4645 330.558 26.3153 331.219 26.017C331.886 25.7187 332.408 25.3033 332.785 24.7706C333.161 24.2308 333.349 23.6094 333.349 22.9062C333.349 22.1747 333.161 21.532 332.785 20.978C332.415 20.4169 331.872 19.9766 331.155 19.657C330.445 19.3374 329.585 19.1776 328.577 19.1776H326.734V16.4929H328.577C329.386 16.4929 330.097 16.3473 330.707 16.0561C331.325 15.7649 331.808 15.3601 332.156 14.8416C332.504 14.3161 332.678 13.7017 332.678 12.9986C332.678 12.3239 332.526 11.7379 332.22 11.2408C331.922 10.7365 331.496 10.3423 330.942 10.0582C330.395 9.77415 329.749 9.6321 329.003 9.6321C328.293 9.6321 327.629 9.76349 327.011 10.0263C326.4 10.282 325.903 10.6513 325.519 11.1342C325.136 11.6101 324.93 12.1818 324.901 12.8494H321.716C321.751 11.6705 322.099 10.6335 322.76 9.73864C323.428 8.84375 324.308 8.14418 325.402 7.63991C326.496 7.13565 327.71 6.88352 329.045 6.88352C330.445 6.88352 331.652 7.15696 332.668 7.70383C333.69 8.24361 334.479 8.96449 335.033 9.86648C335.594 10.7685 335.871 11.7557 335.864 12.8281C335.871 14.0497 335.53 15.0866 334.841 15.9389C334.159 16.7912 333.25 17.3629 332.114 17.6541V17.8246C333.563 18.0447 334.685 18.62 335.48 19.5504C336.283 20.4808 336.68 21.6349 336.673 23.0128C336.68 24.2131 336.347 25.2891 335.672 26.2408C335.004 27.1925 334.092 27.9418 332.934 28.4886C331.776 29.0284 330.452 29.2983 328.96 29.2983ZM341.7 29V26.6136L349.083 18.9645C349.871 18.1335 350.521 17.4055 351.033 16.7805C351.551 16.1484 351.938 15.5483 352.194 14.9801C352.45 14.4119 352.577 13.8082 352.577 13.169C352.577 12.4446 352.407 11.8196 352.066 11.294C351.725 10.7614 351.26 10.353 350.67 10.0689C350.081 9.7777 349.417 9.6321 348.678 9.6321C347.897 9.6321 347.215 9.7919 346.633 10.1115C346.05 10.4311 345.603 10.8821 345.29 11.4645C344.978 12.0469 344.822 12.7287 344.822 13.5099H341.679C341.679 12.1818 341.984 11.0206 342.595 10.0263C343.206 9.03196 344.044 8.26136 345.109 7.71449C346.175 7.16051 347.386 6.88352 348.742 6.88352C350.113 6.88352 351.32 7.15696 352.364 7.70383C353.415 8.24361 354.236 8.98224 354.825 9.91974C355.415 10.8501 355.71 11.9013 355.71 13.0732C355.71 13.8828 355.557 14.6747 355.251 15.4489C354.953 16.223 354.431 17.0859 353.685 18.0376C352.94 18.9822 351.903 20.1293 350.575 21.4787L346.239 26.017V26.1768H356.061V29H341.7Z" fill="#212425"/>
<path d="M0.958807 23V14.2727H4.15483C4.77415 14.2727 5.28693 14.375 5.69318 14.5795C6.09943 14.7812 6.40341 15.0554 6.60511 15.402C6.80682 15.7457 6.90767 16.1335 6.90767 16.5653C6.90767 16.929 6.84091 17.2358 6.70739 17.4858C6.57386 17.733 6.39489 17.9318 6.17045 18.0824C5.94886 18.2301 5.70455 18.3381 5.4375 18.4062V18.4915C5.72727 18.5057 6.00994 18.5994 6.28551 18.7727C6.56392 18.9432 6.79403 19.1861 6.97585 19.5014C7.15767 19.8168 7.24858 20.2003 7.24858 20.652C7.24858 21.098 7.14347 21.4986 6.93324 21.8537C6.72585 22.206 6.40483 22.4858 5.97017 22.6932C5.53551 22.8977 4.98011 23 4.30398 23H0.958807ZM2.27557 21.8707H4.17614C4.80682 21.8707 5.25852 21.7486 5.53125 21.5043C5.80398 21.2599 5.94034 20.9545 5.94034 20.5881C5.94034 20.3125 5.87074 20.0597 5.73153 19.8295C5.59233 19.5994 5.39347 19.4162 5.13494 19.2798C4.87926 19.1435 4.57528 19.0753 4.22301 19.0753H2.27557V21.8707ZM2.27557 18.0483H4.03977C4.33523 18.0483 4.60085 17.9915 4.83665 17.8778C5.07528 17.7642 5.2642 17.6051 5.40341 17.4006C5.54545 17.1932 5.61648 16.9489 5.61648 16.6676C5.61648 16.3068 5.49006 16.0043 5.23722 15.7599C4.98438 15.5156 4.59659 15.3935 4.07386 15.3935H2.27557V18.0483ZM11.6129 23.1449C11.1982 23.1449 10.8232 23.0682 10.4879 22.9148C10.1527 22.7585 9.88707 22.5327 9.69105 22.2372C9.49787 21.9418 9.40128 21.5795 9.40128 21.1506C9.40128 20.7812 9.4723 20.4773 9.61435 20.2386C9.75639 20 9.94815 19.8111 10.1896 19.6719C10.4311 19.5327 10.701 19.4276 10.9993 19.3565C11.2976 19.2855 11.6016 19.2315 11.9112 19.1946C12.3033 19.1491 12.6214 19.1122 12.8658 19.0838C13.1101 19.0526 13.2876 19.0028 13.3984 18.9347C13.5092 18.8665 13.5646 18.7557 13.5646 18.6023V18.5724C13.5646 18.2003 13.4595 17.9119 13.2493 17.7074C13.0419 17.5028 12.7322 17.4006 12.3203 17.4006C11.8913 17.4006 11.5533 17.4957 11.3061 17.6861C11.0618 17.8736 10.8928 18.0824 10.799 18.3125L9.60156 18.0398C9.74361 17.642 9.95099 17.321 10.2237 17.0767C10.4993 16.8295 10.8161 16.6506 11.174 16.5398C11.532 16.4261 11.9084 16.3693 12.3033 16.3693C12.5646 16.3693 12.8416 16.4006 13.1342 16.4631C13.4297 16.5227 13.7053 16.6335 13.9609 16.7955C14.2195 16.9574 14.4311 17.1889 14.5959 17.4901C14.7607 17.7884 14.843 18.1761 14.843 18.6534V23H13.5987V22.1051H13.5476C13.4652 22.2699 13.3416 22.4318 13.1768 22.5909C13.0121 22.75 12.8004 22.8821 12.5419 22.9872C12.2834 23.0923 11.9737 23.1449 11.6129 23.1449ZM11.8899 22.1222C12.2422 22.1222 12.5433 22.0526 12.7933 21.9134C13.0462 21.7741 13.2379 21.5923 13.3686 21.3679C13.5021 21.1406 13.5689 20.8977 13.5689 20.6392V19.7955C13.5234 19.8409 13.4354 19.8835 13.3047 19.9233C13.1768 19.9602 13.0305 19.9929 12.8658 20.0213C12.701 20.0469 12.5405 20.071 12.3842 20.0938C12.228 20.1136 12.0973 20.1307 11.9922 20.1449C11.745 20.1761 11.5192 20.2287 11.3146 20.3026C11.1129 20.3764 10.951 20.483 10.8288 20.6222C10.7095 20.7585 10.6499 20.9403 10.6499 21.1676C10.6499 21.483 10.7663 21.7216 10.9993 21.8835C11.2322 22.0426 11.5291 22.1222 11.8899 22.1222ZM18.8143 14.2727V23H17.5401V14.2727H18.8143ZM23.4332 23.1449C23.0185 23.1449 22.6435 23.0682 22.3082 22.9148C21.973 22.7585 21.7074 22.5327 21.5114 22.2372C21.3182 21.9418 21.2216 21.5795 21.2216 21.1506C21.2216 20.7812 21.2926 20.4773 21.4347 20.2386C21.5767 20 21.7685 19.8111 22.0099 19.6719C22.2514 19.5327 22.5213 19.4276 22.8196 19.3565C23.1179 19.2855 23.4219 19.2315 23.7315 19.1946C24.1236 19.1491 24.4418 19.1122 24.6861 19.0838C24.9304 19.0526 25.108 19.0028 25.2188 18.9347C25.3295 18.8665 25.3849 18.7557 25.3849 18.6023V18.5724C25.3849 18.2003 25.2798 17.9119 25.0696 17.7074C24.8622 17.5028 24.5526 17.4006 24.1406 17.4006C23.7116 17.4006 23.3736 17.4957 23.1264 17.6861C22.8821 17.8736 22.7131 18.0824 22.6193 18.3125L21.4219 18.0398C21.5639 17.642 21.7713 17.321 22.044 17.0767C22.3196 16.8295 22.6364 16.6506 22.9943 16.5398C23.3523 16.4261 23.7287 16.3693 24.1236 16.3693C24.3849 16.3693 24.6619 16.4006 24.9545 16.4631C25.25 16.5227 25.5256 16.6335 25.7812 16.7955C26.0398 16.9574 26.2514 17.1889 26.4162 17.4901C26.581 17.7884 26.6634 18.1761 26.6634 18.6534V23H25.419V22.1051H25.3679C25.2855 22.2699 25.1619 22.4318 24.9972 22.5909C24.8324 22.75 24.6207 22.8821 24.3622 22.9872C24.1037 23.0923 23.794 23.1449 23.4332 23.1449ZM23.7102 22.1222C24.0625 22.1222 24.3636 22.0526 24.6136 21.9134C24.8665 21.7741 25.0582 21.5923 25.1889 21.3679C25.3224 21.1406 25.3892 20.8977 25.3892 20.6392V19.7955C25.3438 19.8409 25.2557 19.8835 25.125 19.9233C24.9972 19.9602 24.8509 19.9929 24.6861 20.0213C24.5213 20.0469 24.3608 20.071 24.2045 20.0938C24.0483 20.1136 23.9176 20.1307 23.8125 20.1449C23.5653 20.1761 23.3395 20.2287 23.1349 20.3026C22.9332 20.3764 22.7713 20.483 22.6491 20.6222C22.5298 20.7585 22.4702 20.9403 22.4702 21.1676C22.4702 21.483 22.5866 21.7216 22.8196 21.8835C23.0526 22.0426 23.3494 22.1222 23.7102 22.1222ZM30.6346 19.1136V23H29.3604V16.4545H30.5835V17.5199H30.6644C30.815 17.1733 31.0508 16.8949 31.3718 16.6847C31.6957 16.4744 32.1033 16.3693 32.5948 16.3693C33.0408 16.3693 33.4315 16.4631 33.7667 16.6506C34.1019 16.8352 34.3619 17.1108 34.5465 17.4773C34.7312 17.8437 34.8235 18.2969 34.8235 18.8366V23H33.5494V18.9901C33.5494 18.5156 33.4258 18.1449 33.1786 17.8778C32.9315 17.608 32.592 17.473 32.1602 17.473C31.8647 17.473 31.6019 17.5369 31.3718 17.6648C31.1445 17.7926 30.9641 17.9801 30.8306 18.2273C30.6999 18.4716 30.6346 18.767 30.6346 19.1136ZM40.2894 23.1321C39.6559 23.1321 39.1104 22.9886 38.6531 22.7017C38.1985 22.4119 37.8491 22.0128 37.6048 21.5043C37.3604 20.9957 37.2383 20.4134 37.2383 19.7571C37.2383 19.0923 37.3633 18.5057 37.6133 17.9972C37.8633 17.4858 38.2156 17.0866 38.6701 16.7997C39.1246 16.5128 39.6602 16.3693 40.2766 16.3693C40.7738 16.3693 41.217 16.4616 41.6062 16.6463C41.9954 16.8281 42.3093 17.0838 42.5479 17.4134C42.7894 17.7429 42.9329 18.1278 42.9783 18.5682H41.7383C41.6701 18.2614 41.5138 17.9972 41.2695 17.7756C41.0281 17.554 40.7042 17.4432 40.2979 17.4432C39.9428 17.4432 39.6317 17.5369 39.3647 17.7244C39.1005 17.9091 38.8945 18.1733 38.7468 18.517C38.5991 18.858 38.5252 19.2614 38.5252 19.7273C38.5252 20.2045 38.5977 20.6165 38.7425 20.9631C38.8874 21.3097 39.092 21.5781 39.3562 21.7685C39.6232 21.9588 39.9371 22.054 40.2979 22.054C40.5394 22.054 40.7582 22.0099 40.9542 21.9219C41.1531 21.831 41.3192 21.7017 41.4528 21.5341C41.5891 21.3665 41.6843 21.1648 41.7383 20.929H42.9783C42.9329 21.3523 42.7951 21.7301 42.565 22.0625C42.3349 22.3949 42.0266 22.6562 41.6403 22.8466C41.2567 23.0369 40.8065 23.1321 40.2894 23.1321ZM48.1619 23.1321C47.517 23.1321 46.9616 22.9943 46.4957 22.7188C46.0327 22.4403 45.6747 22.0497 45.4219 21.5469C45.1719 21.0412 45.0469 20.4489 45.0469 19.7699C45.0469 19.0994 45.1719 18.5085 45.4219 17.9972C45.6747 17.4858 46.027 17.0866 46.4787 16.7997C46.9332 16.5128 47.4645 16.3693 48.0724 16.3693C48.4418 16.3693 48.7997 16.4304 49.1463 16.5526C49.4929 16.6747 49.804 16.8665 50.0795 17.1278C50.3551 17.3892 50.5724 17.7287 50.7315 18.1463C50.8906 18.5611 50.9702 19.0653 50.9702 19.6591V20.1108H45.767V19.1562H49.7216C49.7216 18.821 49.6534 18.5241 49.517 18.2656C49.3807 18.0043 49.1889 17.7983 48.9418 17.6477C48.6974 17.4972 48.4105 17.4219 48.081 17.4219C47.723 17.4219 47.4105 17.5099 47.1435 17.6861C46.8793 17.8594 46.6747 18.0866 46.5298 18.3679C46.3878 18.6463 46.3168 18.9489 46.3168 19.2756V20.0213C46.3168 20.4588 46.3935 20.831 46.5469 21.1378C46.7031 21.4446 46.9205 21.679 47.1989 21.8409C47.4773 22 47.8026 22.0795 48.1747 22.0795C48.4162 22.0795 48.6364 22.0455 48.8352 21.9773C49.0341 21.9062 49.206 21.8011 49.3509 21.6619C49.4957 21.5227 49.6065 21.3509 49.6832 21.1463L50.8892 21.3636C50.7926 21.7187 50.6193 22.0298 50.3693 22.2969C50.1222 22.5611 49.8111 22.767 49.4361 22.9148C49.0639 23.0597 48.6392 23.1321 48.1619 23.1321Z" fill="#888888"/>
</g>
<g clip-path="url(#clip1_3603_2)">
<path d="M3.53267 79.0909V68.1818H4.23153V79.0909H3.53267ZM5.71875 71.5653C5.6733 71.1619 5.4858 70.8494 5.15625 70.6278C4.8267 70.4034 4.41193 70.2912 3.91193 70.2912C3.55398 70.2912 3.24432 70.348 2.98295 70.4616C2.72159 70.5724 2.51847 70.7259 2.37358 70.9219C2.23153 71.1151 2.16051 71.3352 2.16051 71.5824C2.16051 71.7898 2.20881 71.9687 2.3054 72.1193C2.40483 72.2699 2.53409 72.3963 2.69318 72.4986C2.85511 72.598 3.02841 72.6818 3.21307 72.75C3.39773 72.8153 3.57528 72.8693 3.74574 72.9119L4.59801 73.1335C4.87642 73.2017 5.16193 73.294 5.45455 73.4105C5.74716 73.527 6.01847 73.6804 6.26847 73.8707C6.51847 74.0611 6.72017 74.2969 6.87358 74.5781C7.02983 74.8594 7.10795 75.196 7.10795 75.5881C7.10795 76.0824 6.98011 76.5213 6.72443 76.9048C6.47159 77.2884 6.10369 77.5909 5.62074 77.8125C5.14063 78.0341 4.55966 78.1449 3.87784 78.1449C3.22443 78.1449 2.65909 78.0412 2.18182 77.8338C1.70455 77.6264 1.33097 77.3324 1.06108 76.9517C0.791193 76.5682 0.642045 76.1136 0.613636 75.5881H1.93466C1.96023 75.9034 2.0625 76.1662 2.24148 76.3764C2.4233 76.5838 2.65483 76.7386 2.93608 76.8409C3.22017 76.9403 3.53125 76.9901 3.86932 76.9901C4.24148 76.9901 4.57244 76.9318 4.86222 76.8153C5.15483 76.696 5.38494 76.5312 5.55256 76.321C5.72017 76.108 5.80398 75.8594 5.80398 75.5753C5.80398 75.3168 5.73011 75.1051 5.58239 74.9403C5.4375 74.7756 5.24006 74.6392 4.99006 74.5312C4.7429 74.4233 4.46307 74.3281 4.15057 74.2457L3.11932 73.9645C2.42045 73.7741 1.86648 73.4943 1.45739 73.125C1.05114 72.7557 0.848011 72.267 0.848011 71.6591C0.848011 71.1562 0.984375 70.7173 1.2571 70.3423C1.52983 69.9673 1.89915 69.6761 2.36506 69.4688C2.83097 69.2585 3.35653 69.1534 3.94176 69.1534C4.53267 69.1534 5.05398 69.2571 5.50568 69.4645C5.96023 69.6719 6.31818 69.9574 6.57955 70.321C6.84091 70.6818 6.97727 71.0966 6.98864 71.5653H5.71875ZM12.4428 78.1193C11.9087 78.1193 11.4286 78.017 11.0025 77.8125C10.5792 77.6051 10.2411 77.321 9.98828 76.9602C9.73544 76.5994 9.6005 76.1875 9.58345 75.7244H10.8619C10.8931 76.0994 11.0593 76.4077 11.3604 76.6491C11.6616 76.8906 12.0224 77.0114 12.4428 77.0114C12.7781 77.0114 13.0749 76.9347 13.3335 76.7812C13.5948 76.625 13.7994 76.4105 13.9471 76.1378C14.0977 75.8651 14.1729 75.554 14.1729 75.2045C14.1729 74.8494 14.0962 74.5327 13.9428 74.2543C13.7894 73.9759 13.5778 73.7571 13.3079 73.598C13.0408 73.4389 12.734 73.358 12.3874 73.3551C12.1232 73.3551 11.8576 73.4006 11.5906 73.4915C11.3235 73.5824 11.1076 73.7017 10.9428 73.8494L9.73686 73.6705L10.2269 69.2727H15.0252V70.402H11.3221L11.0451 72.8438H11.0962C11.2667 72.679 11.4925 72.5412 11.7738 72.4304C12.0579 72.3196 12.3619 72.2642 12.6857 72.2642C13.217 72.2642 13.69 72.3906 14.1048 72.6435C14.5224 72.8963 14.8505 73.2415 15.0891 73.679C15.3306 74.1136 15.4499 74.6136 15.4471 75.179C15.4499 75.7443 15.3221 76.2486 15.0636 76.6918C14.8079 77.1349 14.4528 77.4844 13.9982 77.7401C13.5465 77.9929 13.0281 78.1193 12.4428 78.1193ZM21.0419 78.1449C20.3686 78.142 19.7933 77.9645 19.3161 77.6122C18.8388 77.2599 18.4737 76.7472 18.2209 76.0739C17.968 75.4006 17.8416 74.5895 17.8416 73.6406C17.8416 72.6946 17.968 71.8864 18.2209 71.2159C18.4766 70.5455 18.843 70.0341 19.3203 69.6818C19.8004 69.3295 20.3743 69.1534 21.0419 69.1534C21.7095 69.1534 22.282 69.331 22.7592 69.6861C23.2365 70.0384 23.6016 70.5497 23.8544 71.2202C24.1101 71.8878 24.2379 72.6946 24.2379 73.6406C24.2379 74.5923 24.1115 75.4048 23.8587 76.0781C23.6058 76.7486 23.2408 77.2614 22.7635 77.6165C22.2862 77.9688 21.7124 78.1449 21.0419 78.1449ZM21.0419 77.0071C21.6328 77.0071 22.0945 76.7188 22.4268 76.142C22.7621 75.5653 22.9297 74.7315 22.9297 73.6406C22.9297 72.9162 22.853 72.304 22.6996 71.804C22.549 71.3011 22.3317 70.9205 22.0476 70.6619C21.7663 70.4006 21.4311 70.2699 21.0419 70.2699C20.4538 70.2699 19.9922 70.5597 19.657 71.1392C19.3217 71.7187 19.1527 72.5526 19.1499 73.6406C19.1499 74.3679 19.2251 74.983 19.3757 75.4858C19.5291 75.9858 19.7464 76.3651 20.0277 76.6236C20.3089 76.8793 20.647 77.0071 21.0419 77.0071ZM27.9386 75.7798L27.93 74.2244H28.1516L30.7596 71.4545H32.2852L29.3107 74.608H29.1104L27.9386 75.7798ZM26.7667 78V69.2727H28.0408V78H26.7667ZM30.9002 78L28.5565 74.8892L29.4343 73.9986L32.4641 78H30.9002Z" fill="#212425"/>
<path d="M3.53267 123.091V112.182H4.23153V123.091H3.53267ZM5.71875 115.565C5.6733 115.162 5.4858 114.849 5.15625 114.628C4.8267 114.403 4.41193 114.291 3.91193 114.291C3.55398 114.291 3.24432 114.348 2.98295 114.462C2.72159 114.572 2.51847 114.726 2.37358 114.922C2.23153 115.115 2.16051 115.335 2.16051 115.582C2.16051 115.79 2.20881 115.969 2.3054 116.119C2.40483 116.27 2.53409 116.396 2.69318 116.499C2.85511 116.598 3.02841 116.682 3.21307 116.75C3.39773 116.815 3.57528 116.869 3.74574 116.912L4.59801 117.134C4.87642 117.202 5.16193 117.294 5.45455 117.411C5.74716 117.527 6.01847 117.68 6.26847 117.871C6.51847 118.061 6.72017 118.297 6.87358 118.578C7.02983 118.859 7.10795 119.196 7.10795 119.588C7.10795 120.082 6.98011 120.521 6.72443 120.905C6.47159 121.288 6.10369 121.591 5.62074 121.812C5.14063 122.034 4.55966 122.145 3.87784 122.145C3.22443 122.145 2.65909 122.041 2.18182 121.834C1.70455 121.626 1.33097 121.332 1.06108 120.952C0.791193 120.568 0.642045 120.114 0.613636 119.588H1.93466C1.96023 119.903 2.0625 120.166 2.24148 120.376C2.4233 120.584 2.65483 120.739 2.93608 120.841C3.22017 120.94 3.53125 120.99 3.86932 120.99C4.24148 120.99 4.57244 120.932 4.86222 120.815C5.15483 120.696 5.38494 120.531 5.55256 120.321C5.72017 120.108 5.80398 119.859 5.80398 119.575C5.80398 119.317 5.73011 119.105 5.58239 118.94C5.4375 118.776 5.24006 118.639 4.99006 118.531C4.7429 118.423 4.46307 118.328 4.15057 118.246L3.11932 117.964C2.42045 117.774 1.86648 117.494 1.45739 117.125C1.05114 116.756 0.848011 116.267 0.848011 115.659C0.848011 115.156 0.984375 114.717 1.2571 114.342C1.52983 113.967 1.89915 113.676 2.36506 113.469C2.83097 113.259 3.35653 113.153 3.94176 113.153C4.53267 113.153 5.05398 113.257 5.50568 113.464C5.96023 113.672 6.31818 113.957 6.57955 114.321C6.84091 114.682 6.97727 115.097 6.98864 115.565H5.71875ZM9.37891 120.295V119.23L13.1502 113.273H13.9897V114.841H13.457L10.7596 119.111V119.179H15.9286V120.295H9.37891ZM13.5167 122V119.972L13.5252 119.486V113.273H14.7738V122H13.5167ZM21.4521 122.145C20.7788 122.142 20.2035 121.964 19.7262 121.612C19.2489 121.26 18.8839 120.747 18.631 120.074C18.3782 119.401 18.2518 118.589 18.2518 117.641C18.2518 116.695 18.3782 115.886 18.631 115.216C18.8867 114.545 19.2532 114.034 19.7305 113.682C20.2106 113.33 20.7844 113.153 21.4521 113.153C22.1197 113.153 22.6921 113.331 23.1694 113.686C23.6467 114.038 24.0117 114.55 24.2646 115.22C24.5202 115.888 24.6481 116.695 24.6481 117.641C24.6481 118.592 24.5217 119.405 24.2688 120.078C24.016 120.749 23.6509 121.261 23.1737 121.616C22.6964 121.969 22.1225 122.145 21.4521 122.145ZM21.4521 121.007C22.043 121.007 22.5046 120.719 22.837 120.142C23.1722 119.565 23.3398 118.732 23.3398 117.641C23.3398 116.916 23.2631 116.304 23.1097 115.804C22.9592 115.301 22.7418 114.92 22.4577 114.662C22.1765 114.401 21.8413 114.27 21.4521 114.27C20.864 114.27 20.4023 114.56 20.0671 115.139C19.7319 115.719 19.5629 116.553 19.56 117.641C19.56 118.368 19.6353 118.983 19.7859 119.486C19.9393 119.986 20.1566 120.365 20.4379 120.624C20.7191 120.879 21.0572 121.007 21.4521 121.007ZM28.3487 119.78L28.3402 118.224H28.5618L31.1697 115.455H32.6953L29.7209 118.608H29.5206L28.3487 119.78ZM27.1768 122V113.273H28.451V122H27.1768ZM31.3104 122L28.9666 118.889L29.8445 117.999L32.8743 122H31.3104Z" fill="#212425"/>
<path d="M3.53267 167.091V156.182H4.23153V167.091H3.53267ZM5.71875 159.565C5.6733 159.162 5.4858 158.849 5.15625 158.628C4.8267 158.403 4.41193 158.291 3.91193 158.291C3.55398 158.291 3.24432 158.348 2.98295 158.462C2.72159 158.572 2.51847 158.726 2.37358 158.922C2.23153 159.115 2.16051 159.335 2.16051 159.582C2.16051 159.79 2.20881 159.969 2.3054 160.119C2.40483 160.27 2.53409 160.396 2.69318 160.499C2.85511 160.598 3.02841 160.682 3.21307 160.75C3.39773 160.815 3.57528 160.869 3.74574 160.912L4.59801 161.134C4.87642 161.202 5.16193 161.294 5.45455 161.411C5.74716 161.527 6.01847 161.68 6.26847 161.871C6.51847 162.061 6.72017 162.297 6.87358 162.578C7.02983 162.859 7.10795 163.196 7.10795 163.588C7.10795 164.082 6.98011 164.521 6.72443 164.905C6.47159 165.288 6.10369 165.591 5.62074 165.812C5.14063 166.034 4.55966 166.145 3.87784 166.145C3.22443 166.145 2.65909 166.041 2.18182 165.834C1.70455 165.626 1.33097 165.332 1.06108 164.952C0.791193 164.568 0.642045 164.114 0.613636 163.588H1.93466C1.96023 163.903 2.0625 164.166 2.24148 164.376C2.4233 164.584 2.65483 164.739 2.93608 164.841C3.22017 164.94 3.53125 164.99 3.86932 164.99C4.24148 164.99 4.57244 164.932 4.86222 164.815C5.15483 164.696 5.38494 164.531 5.55256 164.321C5.72017 164.108 5.80398 163.859 5.80398 163.575C5.80398 163.317 5.73011 163.105 5.58239 162.94C5.4375 162.776 5.24006 162.639 4.99006 162.531C4.7429 162.423 4.46307 162.328 4.15057 162.246L3.11932 161.964C2.42045 161.774 1.86648 161.494 1.45739 161.125C1.05114 160.756 0.848011 160.267 0.848011 159.659C0.848011 159.156 0.984375 158.717 1.2571 158.342C1.52983 157.967 1.89915 157.676 2.36506 157.469C2.83097 157.259 3.35653 157.153 3.94176 157.153C4.53267 157.153 5.05398 157.257 5.50568 157.464C5.96023 157.672 6.31818 157.957 6.57955 158.321C6.84091 158.682 6.97727 159.097 6.98864 159.565H5.71875ZM12.6005 166.119C12.0153 166.119 11.4925 166.018 11.0323 165.817C10.5749 165.615 10.2127 165.335 9.94567 164.977C9.68146 164.616 9.53942 164.199 9.51953 163.724H10.8576C10.8746 163.983 10.9613 164.207 11.1175 164.398C11.2766 164.585 11.484 164.73 11.7397 164.832C11.9954 164.935 12.2795 164.986 12.592 164.986C12.9357 164.986 13.2397 164.926 13.5039 164.807C13.771 164.687 13.9798 164.521 14.1303 164.308C14.2809 164.092 14.3562 163.844 14.3562 163.562C14.3562 163.27 14.2809 163.013 14.1303 162.791C13.9826 162.567 13.7653 162.391 13.4783 162.263C13.1942 162.135 12.8505 162.071 12.4471 162.071H11.7099V160.997H12.4471C12.771 160.997 13.055 160.939 13.2994 160.822C13.5465 160.706 13.7397 160.544 13.8789 160.337C14.0181 160.126 14.0877 159.881 14.0877 159.599C14.0877 159.33 14.0266 159.095 13.9045 158.896C13.7852 158.695 13.6147 158.537 13.3931 158.423C13.1744 158.31 12.9158 158.253 12.6175 158.253C12.3335 158.253 12.0678 158.305 11.8207 158.411C11.5763 158.513 11.3775 158.661 11.2241 158.854C11.0707 159.044 10.9883 159.273 10.9769 159.54H9.70277C9.71697 159.068 9.85618 158.653 10.1204 158.295C10.3874 157.937 10.7397 157.658 11.1772 157.456C11.6147 157.254 12.1005 157.153 12.6346 157.153C13.1942 157.153 13.6772 157.263 14.0835 157.482C14.4925 157.697 14.8079 157.986 15.0295 158.347C15.2539 158.707 15.3647 159.102 15.3619 159.531C15.3647 160.02 15.2283 160.435 14.9528 160.776C14.68 161.116 14.3164 161.345 13.8619 161.462V161.53C14.4414 161.618 14.8903 161.848 15.2085 162.22C15.5295 162.592 15.6886 163.054 15.6857 163.605C15.6886 164.085 15.555 164.516 15.2852 164.896C15.0181 165.277 14.6531 165.577 14.19 165.795C13.7269 166.011 13.1971 166.119 12.6005 166.119ZM21.3349 166.145C20.6616 166.142 20.0863 165.964 19.609 165.612C19.1317 165.26 18.7667 164.747 18.5138 164.074C18.261 163.401 18.1346 162.589 18.1346 161.641C18.1346 160.695 18.261 159.886 18.5138 159.216C18.7695 158.545 19.136 158.034 19.6133 157.682C20.0934 157.33 20.6673 157.153 21.3349 157.153C22.0025 157.153 22.5749 157.331 23.0522 157.686C23.5295 158.038 23.8945 158.55 24.1474 159.22C24.4031 159.888 24.5309 160.695 24.5309 161.641C24.5309 162.592 24.4045 163.405 24.1516 164.078C23.8988 164.749 23.5337 165.261 23.0565 165.616C22.5792 165.969 22.0053 166.145 21.3349 166.145ZM21.3349 165.007C21.9258 165.007 22.3874 164.719 22.7198 164.142C23.055 163.565 23.2227 162.732 23.2227 161.641C23.2227 160.916 23.146 160.304 22.9925 159.804C22.842 159.301 22.6246 158.92 22.3406 158.662C22.0593 158.401 21.7241 158.27 21.3349 158.27C20.7468 158.27 20.2852 158.56 19.9499 159.139C19.6147 159.719 19.4457 160.553 19.4428 161.641C19.4428 162.368 19.5181 162.983 19.6687 163.486C19.8221 163.986 20.0394 164.365 20.3207 164.624C20.6019 164.879 20.94 165.007 21.3349 165.007ZM28.2315 163.78L28.223 162.224H28.4446L31.0526 159.455H32.5781L29.6037 162.608H29.4034L28.2315 163.78ZM27.0597 166V157.273H28.3338V166H27.0597ZM31.1932 166L28.8494 162.889L29.7273 161.999L32.7571 166H31.1932Z" fill="#212425"/>
<path d="M3.53267 210.091V199.182H4.23153V210.091H3.53267ZM5.71875 202.565C5.6733 202.162 5.4858 201.849 5.15625 201.628C4.8267 201.403 4.41193 201.291 3.91193 201.291C3.55398 201.291 3.24432 201.348 2.98295 201.462C2.72159 201.572 2.51847 201.726 2.37358 201.922C2.23153 202.115 2.16051 202.335 2.16051 202.582C2.16051 202.79 2.20881 202.969 2.3054 203.119C2.40483 203.27 2.53409 203.396 2.69318 203.499C2.85511 203.598 3.02841 203.682 3.21307 203.75C3.39773 203.815 3.57528 203.869 3.74574 203.912L4.59801 204.134C4.87642 204.202 5.16193 204.294 5.45455 204.411C5.74716 204.527 6.01847 204.68 6.26847 204.871C6.51847 205.061 6.72017 205.297 6.87358 205.578C7.02983 205.859 7.10795 206.196 7.10795 206.588C7.10795 207.082 6.98011 207.521 6.72443 207.905C6.47159 208.288 6.10369 208.591 5.62074 208.812C5.14063 209.034 4.55966 209.145 3.87784 209.145C3.22443 209.145 2.65909 209.041 2.18182 208.834C1.70455 208.626 1.33097 208.332 1.06108 207.952C0.791193 207.568 0.642045 207.114 0.613636 206.588H1.93466C1.96023 206.903 2.0625 207.166 2.24148 207.376C2.4233 207.584 2.65483 207.739 2.93608 207.841C3.22017 207.94 3.53125 207.99 3.86932 207.99C4.24148 207.99 4.57244 207.932 4.86222 207.815C5.15483 207.696 5.38494 207.531 5.55256 207.321C5.72017 207.108 5.80398 206.859 5.80398 206.575C5.80398 206.317 5.73011 206.105 5.58239 205.94C5.4375 205.776 5.24006 205.639 4.99006 205.531C4.7429 205.423 4.46307 205.328 4.15057 205.246L3.11932 204.964C2.42045 204.774 1.86648 204.494 1.45739 204.125C1.05114 203.756 0.848011 203.267 0.848011 202.659C0.848011 202.156 0.984375 201.717 1.2571 201.342C1.52983 200.967 1.89915 200.676 2.36506 200.469C2.83097 200.259 3.35653 200.153 3.94176 200.153C4.53267 200.153 5.05398 200.257 5.50568 200.464C5.96023 200.672 6.31818 200.957 6.57955 201.321C6.84091 201.682 6.97727 202.097 6.98864 202.565H5.71875ZM9.56214 209V208.045L12.5153 204.986C12.8306 204.653 13.0906 204.362 13.2951 204.112C13.5025 203.859 13.6573 203.619 13.7596 203.392C13.8619 203.165 13.913 202.923 13.913 202.668C13.913 202.378 13.8448 202.128 13.7085 201.918C13.5721 201.705 13.386 201.541 13.1502 201.428C12.9144 201.311 12.6488 201.253 12.3533 201.253C12.0408 201.253 11.7681 201.317 11.5352 201.445C11.3022 201.572 11.1232 201.753 10.9982 201.986C10.8732 202.219 10.8107 202.491 10.8107 202.804H9.55362C9.55362 202.273 9.67578 201.808 9.9201 201.411C10.1644 201.013 10.4996 200.705 10.9258 200.486C11.3519 200.264 11.8363 200.153 12.3789 200.153C12.9272 200.153 13.4102 200.263 13.8278 200.482C14.2482 200.697 14.5763 200.993 14.8121 201.368C15.0479 201.74 15.1658 202.161 15.1658 202.629C15.1658 202.953 15.1048 203.27 14.9826 203.58C14.8633 203.889 14.6545 204.234 14.3562 204.615C14.0579 204.993 13.6431 205.452 13.1119 205.991L11.3775 207.807V207.871H15.3065V209H9.56214ZM20.9599 209.145C20.2866 209.142 19.7113 208.964 19.234 208.612C18.7567 208.26 18.3917 207.747 18.1388 207.074C17.886 206.401 17.7596 205.589 17.7596 204.641C17.7596 203.695 17.886 202.886 18.1388 202.216C18.3945 201.545 18.761 201.034 19.2383 200.682C19.7184 200.33 20.2923 200.153 20.9599 200.153C21.6275 200.153 22.1999 200.331 22.6772 200.686C23.1545 201.038 23.5195 201.55 23.7724 202.22C24.0281 202.888 24.1559 203.695 24.1559 204.641C24.1559 205.592 24.0295 206.405 23.7766 207.078C23.5238 207.749 23.1587 208.261 22.6815 208.616C22.2042 208.969 21.6303 209.145 20.9599 209.145ZM20.9599 208.007C21.5508 208.007 22.0124 207.719 22.3448 207.142C22.68 206.565 22.8477 205.732 22.8477 204.641C22.8477 203.916 22.771 203.304 22.6175 202.804C22.467 202.301 22.2496 201.92 21.9656 201.662C21.6843 201.401 21.3491 201.27 20.9599 201.27C20.3718 201.27 19.9102 201.56 19.5749 202.139C19.2397 202.719 19.0707 203.553 19.0678 204.641C19.0678 205.368 19.1431 205.983 19.2937 206.486C19.4471 206.986 19.6644 207.365 19.9457 207.624C20.2269 207.879 20.565 208.007 20.9599 208.007ZM27.8565 206.78L27.848 205.224H28.0696L30.6776 202.455H32.2031L29.2287 205.608H29.0284L27.8565 206.78ZM26.6847 209V200.273H27.9588V209H26.6847ZM30.8182 209L28.4744 205.889L29.3523 204.999L32.3821 209H30.8182Z" fill="#212425"/>
<path d="M3.53267 254.091V243.182H4.23153V254.091H3.53267ZM5.71875 246.565C5.6733 246.162 5.4858 245.849 5.15625 245.628C4.8267 245.403 4.41193 245.291 3.91193 245.291C3.55398 245.291 3.24432 245.348 2.98295 245.462C2.72159 245.572 2.51847 245.726 2.37358 245.922C2.23153 246.115 2.16051 246.335 2.16051 246.582C2.16051 246.79 2.20881 246.969 2.3054 247.119C2.40483 247.27 2.53409 247.396 2.69318 247.499C2.85511 247.598 3.02841 247.682 3.21307 247.75C3.39773 247.815 3.57528 247.869 3.74574 247.912L4.59801 248.134C4.87642 248.202 5.16193 248.294 5.45455 248.411C5.74716 248.527 6.01847 248.68 6.26847 248.871C6.51847 249.061 6.72017 249.297 6.87358 249.578C7.02983 249.859 7.10795 250.196 7.10795 250.588C7.10795 251.082 6.98011 251.521 6.72443 251.905C6.47159 252.288 6.10369 252.591 5.62074 252.812C5.14063 253.034 4.55966 253.145 3.87784 253.145C3.22443 253.145 2.65909 253.041 2.18182 252.834C1.70455 252.626 1.33097 252.332 1.06108 251.952C0.791193 251.568 0.642045 251.114 0.613636 250.588H1.93466C1.96023 250.903 2.0625 251.166 2.24148 251.376C2.4233 251.584 2.65483 251.739 2.93608 251.841C3.22017 251.94 3.53125 251.99 3.86932 251.99C4.24148 251.99 4.57244 251.932 4.86222 251.815C5.15483 251.696 5.38494 251.531 5.55256 251.321C5.72017 251.108 5.80398 250.859 5.80398 250.575C5.80398 250.317 5.73011 250.105 5.58239 249.94C5.4375 249.776 5.24006 249.639 4.99006 249.531C4.7429 249.423 4.46307 249.328 4.15057 249.246L3.11932 248.964C2.42045 248.774 1.86648 248.494 1.45739 248.125C1.05114 247.756 0.848011 247.267 0.848011 246.659C0.848011 246.156 0.984375 245.717 1.2571 245.342C1.52983 244.967 1.89915 244.676 2.36506 244.469C2.83097 244.259 3.35653 244.153 3.94176 244.153C4.53267 244.153 5.05398 244.257 5.50568 244.464C5.96023 244.672 6.31818 244.957 6.57955 245.321C6.84091 245.682 6.97727 246.097 6.98864 246.565H5.71875ZM12.8732 244.273V253H11.5522V245.594H11.5011L9.413 246.957V245.696L11.5906 244.273H12.8732ZM19.2724 253.145C18.5991 253.142 18.0238 252.964 17.5465 252.612C17.0692 252.26 16.7042 251.747 16.4513 251.074C16.1985 250.401 16.0721 249.589 16.0721 248.641C16.0721 247.695 16.1985 246.886 16.4513 246.216C16.707 245.545 17.0735 245.034 17.5508 244.682C18.0309 244.33 18.6048 244.153 19.2724 244.153C19.94 244.153 20.5124 244.331 20.9897 244.686C21.467 245.038 21.832 245.55 22.0849 246.22C22.3406 246.888 22.4684 247.695 22.4684 248.641C22.4684 249.592 22.342 250.405 22.0891 251.078C21.8363 251.749 21.4712 252.261 20.994 252.616C20.5167 252.969 19.9428 253.145 19.2724 253.145ZM19.2724 252.007C19.8633 252.007 20.3249 251.719 20.6573 251.142C20.9925 250.565 21.1602 249.732 21.1602 248.641C21.1602 247.916 21.0835 247.304 20.93 246.804C20.7795 246.301 20.5621 245.92 20.2781 245.662C19.9968 245.401 19.6616 245.27 19.2724 245.27C18.6843 245.27 18.2227 245.56 17.8874 246.139C17.5522 246.719 17.3832 247.553 17.3803 248.641C17.3803 249.368 17.4556 249.983 17.6062 250.486C17.7596 250.986 17.9769 251.365 18.2582 251.624C18.5394 251.879 18.8775 252.007 19.2724 252.007ZM26.169 250.78L26.1605 249.224H26.3821L28.9901 246.455H30.5156L27.5412 249.608H27.3409L26.169 250.78ZM24.9972 253V244.273H26.2713V253H24.9972ZM29.1307 253L26.7869 249.889L27.6648 248.999L30.6946 253H29.1307Z" fill="#212425"/>
<path d="M3.53267 298.091V287.182H4.23153V298.091H3.53267ZM5.71875 290.565C5.6733 290.162 5.4858 289.849 5.15625 289.628C4.8267 289.403 4.41193 289.291 3.91193 289.291C3.55398 289.291 3.24432 289.348 2.98295 289.462C2.72159 289.572 2.51847 289.726 2.37358 289.922C2.23153 290.115 2.16051 290.335 2.16051 290.582C2.16051 290.79 2.20881 290.969 2.3054 291.119C2.40483 291.27 2.53409 291.396 2.69318 291.499C2.85511 291.598 3.02841 291.682 3.21307 291.75C3.39773 291.815 3.57528 291.869 3.74574 291.912L4.59801 292.134C4.87642 292.202 5.16193 292.294 5.45455 292.411C5.74716 292.527 6.01847 292.68 6.26847 292.871C6.51847 293.061 6.72017 293.297 6.87358 293.578C7.02983 293.859 7.10795 294.196 7.10795 294.588C7.10795 295.082 6.98011 295.521 6.72443 295.905C6.47159 296.288 6.10369 296.591 5.62074 296.812C5.14063 297.034 4.55966 297.145 3.87784 297.145C3.22443 297.145 2.65909 297.041 2.18182 296.834C1.70455 296.626 1.33097 296.332 1.06108 295.952C0.791193 295.568 0.642045 295.114 0.613636 294.588H1.93466C1.96023 294.903 2.0625 295.166 2.24148 295.376C2.4233 295.584 2.65483 295.739 2.93608 295.841C3.22017 295.94 3.53125 295.99 3.86932 295.99C4.24148 295.99 4.57244 295.932 4.86222 295.815C5.15483 295.696 5.38494 295.531 5.55256 295.321C5.72017 295.108 5.80398 294.859 5.80398 294.575C5.80398 294.317 5.73011 294.105 5.58239 293.94C5.4375 293.776 5.24006 293.639 4.99006 293.531C4.7429 293.423 4.46307 293.328 4.15057 293.246L3.11932 292.964C2.42045 292.774 1.86648 292.494 1.45739 292.125C1.05114 291.756 0.848011 291.267 0.848011 290.659C0.848011 290.156 0.984375 289.717 1.2571 289.342C1.52983 288.967 1.89915 288.676 2.36506 288.469C2.83097 288.259 3.35653 288.153 3.94176 288.153C4.53267 288.153 5.05398 288.257 5.50568 288.464C5.96023 288.672 6.31818 288.957 6.57955 289.321C6.84091 289.682 6.97727 290.097 6.98864 290.565H5.71875ZM12.6005 297.145C11.9272 297.142 11.3519 296.964 10.8746 296.612C10.3974 296.26 10.0323 295.747 9.77947 295.074C9.52663 294.401 9.40021 293.589 9.40021 292.641C9.40021 291.695 9.52663 290.886 9.77947 290.216C10.0352 289.545 10.4016 289.034 10.8789 288.682C11.359 288.33 11.9329 288.153 12.6005 288.153C13.2681 288.153 13.8406 288.331 14.3178 288.686C14.7951 289.038 15.1602 289.55 15.413 290.22C15.6687 290.888 15.7965 291.695 15.7965 292.641C15.7965 293.592 15.6701 294.405 15.4173 295.078C15.1644 295.749 14.7994 296.261 14.3221 296.616C13.8448 296.969 13.271 297.145 12.6005 297.145ZM12.6005 296.007C13.1914 296.007 13.6531 295.719 13.9854 295.142C14.3207 294.565 14.4883 293.732 14.4883 292.641C14.4883 291.916 14.4116 291.304 14.2582 290.804C14.1076 290.301 13.8903 289.92 13.6062 289.662C13.3249 289.401 12.9897 289.27 12.6005 289.27C12.0124 289.27 11.5508 289.56 11.2156 290.139C10.8803 290.719 10.7113 291.553 10.7085 292.641C10.7085 293.368 10.7837 293.983 10.9343 294.486C11.0877 294.986 11.305 295.365 11.5863 295.624C11.8675 295.879 12.2056 296.007 12.6005 296.007ZM19.4972 294.78L19.4886 293.224H19.7102L22.3182 290.455H23.8438L20.8693 293.608H20.669L19.4972 294.78ZM18.3253 297V288.273H19.5994V297H18.3253ZM22.4588 297L20.1151 293.889L20.9929 292.999L24.0227 297H22.4588Z" fill="#212425"/>
</g>
<path d="M49 73H358" stroke="#F2F2F2" stroke-dasharray="4"/>
<path d="M49 117H358" stroke="#F2F2F2" stroke-dasharray="4"/>
<path d="M49 162H358" stroke="#F2F2F2" stroke-dasharray="4"/>
<path d="M49 205H358" stroke="#F2F2F2" stroke-dasharray="4"/>
<path d="M49 248H358" stroke="#F2F2F2" stroke-dasharray="4"/>
<path d="M49 292H358" stroke="#F2F2F2" stroke-dasharray="4"/>
<rect x="195" y="109" width="40" height="182" fill="url(#paint0_linear_3603_2)"/>
<path fill-rule="evenodd" clip-rule="evenodd" d="M49 146.839L63.1479 193.03C70.1514 215.896 103.063 214.226 107.716 190.769C112.641 165.944 148.2 166.109 152.894 190.979L153.372 193.51C157.969 217.864 192.251 219.446 199.071 195.618L203.795 179.111C207.603 165.806 224.697 162.102 233.671 172.639C242.43 182.925 259.067 179.687 263.33 166.868L275.786 129.409C281.655 111.76 306.702 111.996 312.237 129.752C318.198 148.87 345.797 147.166 349.361 127.461L359 74.172V291L49 288.656V146.839Z" fill="url(#paint1_linear_3603_2)"/>
<path d="M49 146.839L63.1479 193.03C70.1514 215.896 103.063 214.226 107.716 190.769V190.769C112.641 165.944 148.2 166.109 152.894 190.979L153.372 193.51C157.969 217.864 192.251 219.446 199.071 195.618L203.795 179.111C207.603 165.806 224.697 162.102 233.671 172.639V172.639C242.43 182.925 259.067 179.687 263.33 166.867L275.786 129.409C281.655 111.76 306.702 111.996 312.237 129.752V129.752C318.198 148.87 345.797 147.166 349.361 127.461L359 74.172" stroke="#5D5D5D" stroke-width="2"/>
<circle cx="217" cy="167" r="6.5" fill="white" stroke="#5D5D5D" stroke-width="3"/>
<g clip-path="url(#clip2_3603_2)">
<path d="M53.3509 316.273H54.6634V322.46C54.6634 323.02 54.5526 323.499 54.331 323.896C54.1122 324.294 53.804 324.598 53.4062 324.808C53.0085 325.016 52.5426 325.119 52.0085 325.119C51.517 325.119 51.0753 325.03 50.6832 324.851C50.294 324.672 49.9858 324.412 49.7585 324.071C49.5341 323.727 49.4219 323.31 49.4219 322.818H50.7301C50.7301 323.06 50.7855 323.268 50.8963 323.445C51.0099 323.621 51.1648 323.759 51.3608 323.858C51.5597 323.955 51.7869 324.003 52.0426 324.003C52.321 324.003 52.5568 323.945 52.75 323.828C52.946 323.709 53.0952 323.534 53.1974 323.304C53.2997 323.074 53.3509 322.793 53.3509 322.46V316.273ZM59.3825 325.145C58.9677 325.145 58.5927 325.068 58.2575 324.915C57.9222 324.759 57.6566 324.533 57.4606 324.237C57.2674 323.942 57.1708 323.58 57.1708 323.151C57.1708 322.781 57.2418 322.477 57.3839 322.239C57.5259 322 57.7177 321.811 57.9592 321.672C58.2006 321.533 58.4705 321.428 58.7688 321.357C59.0671 321.286 59.3711 321.232 59.6808 321.195C60.0728 321.149 60.391 321.112 60.6353 321.084C60.8796 321.053 61.0572 321.003 61.168 320.935C61.2788 320.866 61.3342 320.756 61.3342 320.602V320.572C61.3342 320.2 61.229 319.912 61.0188 319.707C60.8114 319.503 60.5018 319.401 60.0898 319.401C59.6609 319.401 59.3228 319.496 59.0756 319.686C58.8313 319.874 58.6623 320.082 58.5685 320.312L57.3711 320.04C57.5131 319.642 57.7205 319.321 57.9933 319.077C58.2688 318.83 58.5856 318.651 58.9435 318.54C59.3015 318.426 59.6779 318.369 60.0728 318.369C60.3342 318.369 60.6112 318.401 60.9038 318.463C61.1992 318.523 61.4748 318.634 61.7305 318.795C61.989 318.957 62.2006 319.189 62.3654 319.49C62.5302 319.788 62.6126 320.176 62.6126 320.653V325H61.3683V324.105H61.3171C61.2347 324.27 61.1112 324.432 60.9464 324.591C60.7816 324.75 60.57 324.882 60.3114 324.987C60.0529 325.092 59.7433 325.145 59.3825 325.145ZM59.6594 324.122C60.0117 324.122 60.3129 324.053 60.5629 323.913C60.8157 323.774 61.0075 323.592 61.1381 323.368C61.2717 323.141 61.3384 322.898 61.3384 322.639V321.795C61.293 321.841 61.2049 321.884 61.0742 321.923C60.9464 321.96 60.8001 321.993 60.6353 322.021C60.4705 322.047 60.31 322.071 60.1538 322.094C59.9975 322.114 59.8668 322.131 59.7617 322.145C59.5146 322.176 59.2887 322.229 59.0842 322.303C58.8825 322.376 58.7205 322.483 58.5984 322.622C58.479 322.759 58.4194 322.94 58.4194 323.168C58.4194 323.483 58.5359 323.722 58.7688 323.884C59.0018 324.043 59.2987 324.122 59.6594 324.122ZM66.5838 321.114V325H65.3097V318.455H66.5327V319.52H66.6136C66.7642 319.173 67 318.895 67.321 318.685C67.6449 318.474 68.0526 318.369 68.544 318.369C68.9901 318.369 69.3807 318.463 69.7159 318.651C70.0511 318.835 70.3111 319.111 70.4957 319.477C70.6804 319.844 70.7727 320.297 70.7727 320.837V325H69.4986V320.99C69.4986 320.516 69.375 320.145 69.1278 319.878C68.8807 319.608 68.5412 319.473 68.1094 319.473C67.8139 319.473 67.5511 319.537 67.321 319.665C67.0938 319.793 66.9134 319.98 66.7798 320.227C66.6491 320.472 66.5838 320.767 66.5838 321.114Z" fill="#888888"/>
<path d="M87.4061 325V316.273H92.818V317.406H88.7228V320.065H92.4302V321.195H88.7228V325H87.4061ZM97.6756 325.132C97.0307 325.132 96.4753 324.994 96.0094 324.719C95.5463 324.44 95.1884 324.05 94.9355 323.547C94.6855 323.041 94.5605 322.449 94.5605 321.77C94.5605 321.099 94.6855 320.509 94.9355 319.997C95.1884 319.486 95.5407 319.087 95.9924 318.8C96.4469 318.513 96.9782 318.369 97.5861 318.369C97.9554 318.369 98.3134 318.43 98.66 318.553C99.0066 318.675 99.3176 318.866 99.5932 319.128C99.8688 319.389 100.086 319.729 100.245 320.146C100.404 320.561 100.484 321.065 100.484 321.659V322.111H95.2807V321.156H99.2353C99.2353 320.821 99.1671 320.524 99.0307 320.266C98.8944 320.004 98.7026 319.798 98.4554 319.648C98.2111 319.497 97.9242 319.422 97.5946 319.422C97.2367 319.422 96.9242 319.51 96.6571 319.686C96.3929 319.859 96.1884 320.087 96.0435 320.368C95.9015 320.646 95.8304 320.949 95.8304 321.276V322.021C95.8304 322.459 95.9071 322.831 96.0605 323.138C96.2168 323.445 96.4341 323.679 96.7125 323.841C96.9909 324 97.3162 324.08 97.6884 324.08C97.9299 324.08 98.15 324.045 98.3489 323.977C98.5478 323.906 98.7196 323.801 98.8645 323.662C99.0094 323.523 99.1202 323.351 99.1969 323.146L100.403 323.364C100.306 323.719 100.133 324.03 99.883 324.297C99.6358 324.561 99.3248 324.767 98.9498 324.915C98.5776 325.06 98.1529 325.132 97.6756 325.132ZM103 325V316.273H104.274V319.516H104.351C104.425 319.379 104.531 319.222 104.67 319.043C104.809 318.864 105.003 318.707 105.25 318.574C105.497 318.438 105.824 318.369 106.23 318.369C106.758 318.369 107.23 318.503 107.645 318.77C108.059 319.037 108.385 319.422 108.621 319.925C108.859 320.428 108.979 321.033 108.979 321.74C108.979 322.447 108.861 323.054 108.625 323.56C108.389 324.062 108.065 324.45 107.653 324.723C107.241 324.993 106.771 325.128 106.243 325.128C105.845 325.128 105.52 325.061 105.267 324.928C105.017 324.794 104.821 324.638 104.679 324.459C104.537 324.28 104.427 324.121 104.351 323.982H104.244V325H103ZM104.248 321.727C104.248 322.187 104.315 322.591 104.449 322.938C104.582 323.284 104.775 323.555 105.028 323.751C105.281 323.945 105.591 324.041 105.957 324.041C106.338 324.041 106.656 323.94 106.912 323.739C107.167 323.534 107.361 323.257 107.491 322.908C107.625 322.558 107.692 322.165 107.692 321.727C107.692 321.295 107.626 320.908 107.496 320.564C107.368 320.22 107.175 319.949 106.916 319.75C106.66 319.551 106.341 319.452 105.957 319.452C105.588 319.452 105.275 319.547 105.02 319.737C104.767 319.928 104.575 320.193 104.444 320.534C104.314 320.875 104.248 321.273 104.248 321.727Z" fill="#888888"/>
<path d="M127.355 316.273H128.953L131.732 323.057H131.834L134.612 316.273H136.21V325H134.958V318.685H134.877L132.303 324.987H131.263L128.689 318.68H128.608V325H127.355V316.273ZM140.927 325.145C140.513 325.145 140.138 325.068 139.802 324.915C139.467 324.759 139.202 324.533 139.006 324.237C138.812 323.942 138.716 323.58 138.716 323.151C138.716 322.781 138.787 322.477 138.929 322.239C139.071 322 139.263 321.811 139.504 321.672C139.746 321.533 140.015 321.428 140.314 321.357C140.612 321.286 140.916 321.232 141.226 321.195C141.618 321.149 141.936 321.112 142.18 321.084C142.425 321.053 142.602 321.003 142.713 320.935C142.824 320.866 142.879 320.756 142.879 320.602V320.572C142.879 320.2 142.774 319.912 142.564 319.707C142.356 319.503 142.047 319.401 141.635 319.401C141.206 319.401 140.868 319.496 140.621 319.686C140.376 319.874 140.207 320.082 140.113 320.312L138.916 320.04C139.058 319.642 139.265 319.321 139.538 319.077C139.814 318.83 140.131 318.651 140.488 318.54C140.846 318.426 141.223 318.369 141.618 318.369C141.879 318.369 142.156 318.401 142.449 318.463C142.744 318.523 143.02 318.634 143.275 318.795C143.534 318.957 143.746 319.189 143.91 319.49C144.075 319.788 144.157 320.176 144.157 320.653V325H142.913V324.105H142.862C142.78 324.27 142.656 324.432 142.491 324.591C142.327 324.75 142.115 324.882 141.856 324.987C141.598 325.092 141.288 325.145 140.927 325.145ZM141.204 324.122C141.557 324.122 141.858 324.053 142.108 323.913C142.361 323.774 142.552 323.592 142.683 323.368C142.817 323.141 142.883 322.898 142.883 322.639V321.795C142.838 321.841 142.75 321.884 142.619 321.923C142.491 321.96 142.345 321.993 142.18 322.021C142.015 322.047 141.855 322.071 141.699 322.094C141.542 322.114 141.412 322.131 141.307 322.145C141.059 322.176 140.834 322.229 140.629 322.303C140.427 322.376 140.265 322.483 140.143 322.622C140.024 322.759 139.964 322.94 139.964 323.168C139.964 323.483 140.081 323.722 140.314 323.884C140.547 324.043 140.844 324.122 141.204 324.122ZM146.855 325V318.455H148.086V319.494H148.154C148.274 319.142 148.484 318.865 148.785 318.663C149.089 318.459 149.433 318.357 149.816 318.357C149.896 318.357 149.99 318.359 150.097 318.365C150.208 318.371 150.295 318.378 150.357 318.386V319.605C150.306 319.591 150.215 319.575 150.085 319.558C149.954 319.538 149.823 319.528 149.693 319.528C149.392 319.528 149.123 319.592 148.887 319.72C148.654 319.845 148.47 320.02 148.333 320.244C148.197 320.466 148.129 320.719 148.129 321.003V325H146.855Z" fill="#888888"/>
<path d="M166.989 325H165.591L168.732 316.273H170.253L173.394 325H171.996L169.529 317.858H169.461L166.989 325ZM167.223 321.582H171.757V322.69H167.223V321.582ZM175.552 327.455V318.455H176.796V319.516H176.903C176.977 319.379 177.083 319.222 177.222 319.043C177.362 318.864 177.555 318.707 177.802 318.574C178.049 318.438 178.376 318.369 178.782 318.369C179.31 318.369 179.782 318.503 180.197 318.77C180.612 319.037 180.937 319.422 181.173 319.925C181.411 320.428 181.531 321.033 181.531 321.74C181.531 322.447 181.413 323.054 181.177 323.56C180.941 324.062 180.617 324.45 180.205 324.723C179.793 324.993 179.323 325.128 178.795 325.128C178.397 325.128 178.072 325.061 177.819 324.928C177.569 324.794 177.373 324.638 177.231 324.459C177.089 324.28 176.979 324.121 176.903 323.982H176.826V327.455H175.552ZM176.8 321.727C176.8 322.187 176.867 322.591 177.001 322.938C177.134 323.284 177.327 323.555 177.58 323.751C177.833 323.945 178.143 324.041 178.509 324.041C178.89 324.041 179.208 323.94 179.464 323.739C179.719 323.534 179.913 323.257 180.043 322.908C180.177 322.558 180.244 322.165 180.244 321.727C180.244 321.295 180.178 320.908 180.048 320.564C179.92 320.22 179.727 319.949 179.468 319.75C179.212 319.551 178.893 319.452 178.509 319.452C178.14 319.452 177.827 319.547 177.572 319.737C177.319 319.928 177.127 320.193 176.996 320.534C176.866 320.875 176.8 321.273 176.8 321.727ZM183.958 325V318.455H185.19V319.494H185.258C185.377 319.142 185.587 318.865 185.888 318.663C186.192 318.459 186.536 318.357 186.92 318.357C186.999 318.357 187.093 318.359 187.201 318.365C187.312 318.371 187.398 318.378 187.461 318.386V319.605C187.41 319.591 187.319 319.575 187.188 319.558C187.058 319.538 186.927 319.528 186.796 319.528C186.495 319.528 186.227 319.592 185.991 319.72C185.758 319.845 185.573 320.02 185.437 320.244C185.3 320.466 185.232 320.719 185.232 321.003V325H183.958Z" fill="#888888"/>
<path d="M203.377 316.273H204.975L207.753 323.057H207.855L210.634 316.273H212.232V325H210.979V318.685H210.898L208.324 324.987H207.284L204.711 318.68H204.63V325H203.377V316.273ZM216.949 325.145C216.534 325.145 216.159 325.068 215.824 324.915C215.489 324.759 215.223 324.533 215.027 324.237C214.834 323.942 214.737 323.58 214.737 323.151C214.737 322.781 214.808 322.477 214.95 322.239C215.092 322 215.284 321.811 215.526 321.672C215.767 321.533 216.037 321.428 216.335 321.357C216.634 321.286 216.938 321.232 217.247 321.195C217.639 321.149 217.957 321.112 218.202 321.084C218.446 321.053 218.624 321.003 218.734 320.935C218.845 320.866 218.901 320.756 218.901 320.602V320.572C218.901 320.2 218.795 319.912 218.585 319.707C218.378 319.503 218.068 319.401 217.656 319.401C217.227 319.401 216.889 319.496 216.642 319.686C216.398 319.874 216.229 320.082 216.135 320.312L214.938 320.04C215.08 319.642 215.287 319.321 215.56 319.077C215.835 318.83 216.152 318.651 216.51 318.54C216.868 318.426 217.244 318.369 217.639 318.369C217.901 318.369 218.178 318.401 218.47 318.463C218.766 318.523 219.041 318.634 219.297 318.795C219.555 318.957 219.767 319.189 219.932 319.49C220.097 319.788 220.179 320.176 220.179 320.653V325H218.935V324.105H218.884C218.801 324.27 218.678 324.432 218.513 324.591C218.348 324.75 218.136 324.882 217.878 324.987C217.619 325.092 217.31 325.145 216.949 325.145ZM217.226 324.122C217.578 324.122 217.879 324.053 218.129 323.913C218.382 323.774 218.574 323.592 218.705 323.368C218.838 323.141 218.905 322.898 218.905 322.639V321.795C218.859 321.841 218.771 321.884 218.641 321.923C218.513 321.96 218.366 321.993 218.202 322.021C218.037 322.047 217.876 322.071 217.72 322.094C217.564 322.114 217.433 322.131 217.328 322.145C217.081 322.176 216.855 322.229 216.651 322.303C216.449 322.376 216.287 322.483 216.165 322.622C216.045 322.759 215.986 322.94 215.986 323.168C215.986 323.483 216.102 323.722 216.335 323.884C216.568 324.043 216.865 324.122 217.226 324.122ZM223.447 327.455C223.257 327.455 223.083 327.439 222.927 327.408C222.771 327.379 222.654 327.348 222.578 327.314L222.885 326.27C223.118 326.332 223.325 326.359 223.507 326.351C223.689 326.342 223.849 326.274 223.988 326.146C224.13 326.018 224.255 325.81 224.363 325.52L224.521 325.085L222.126 318.455H223.49L225.147 323.534H225.216L226.873 318.455H228.241L225.544 325.874C225.419 326.214 225.26 326.503 225.066 326.739C224.873 326.977 224.643 327.156 224.376 327.276C224.109 327.395 223.799 327.455 223.447 327.455Z" fill="#5D5D5D"/>
<path d="M247.365 316.273H248.677V322.46C248.677 323.02 248.566 323.499 248.345 323.896C248.126 324.294 247.818 324.598 247.42 324.808C247.022 325.016 246.556 325.119 246.022 325.119C245.531 325.119 245.089 325.03 244.697 324.851C244.308 324.672 243.999 324.412 243.772 324.071C243.548 323.727 243.436 323.31 243.436 322.818H244.744C244.744 323.06 244.799 323.268 244.91 323.445C245.024 323.621 245.178 323.759 245.374 323.858C245.573 323.955 245.801 324.003 246.056 324.003C246.335 324.003 246.57 323.945 246.764 323.828C246.96 323.709 247.109 323.534 247.211 323.304C247.313 323.074 247.365 322.793 247.365 322.46V316.273ZM255.638 322.286V318.455H256.916V325H255.663V323.866H255.595C255.444 324.216 255.203 324.507 254.871 324.74C254.541 324.97 254.131 325.085 253.639 325.085C253.219 325.085 252.846 324.993 252.523 324.808C252.202 324.621 251.949 324.344 251.764 323.977C251.582 323.611 251.491 323.158 251.491 322.618V318.455H252.765V322.464C252.765 322.911 252.889 323.266 253.136 323.53C253.383 323.794 253.704 323.926 254.099 323.926C254.338 323.926 254.575 323.866 254.811 323.747C255.05 323.628 255.247 323.447 255.403 323.206C255.562 322.964 255.64 322.658 255.638 322.286ZM260.902 321.114V325H259.628V318.455H260.851V319.52H260.932C261.083 319.173 261.318 318.895 261.639 318.685C261.963 318.474 262.371 318.369 262.862 318.369C263.308 318.369 263.699 318.463 264.034 318.651C264.369 318.835 264.629 319.111 264.814 319.477C264.999 319.844 265.091 320.297 265.091 320.837V325H263.817V320.99C263.817 320.516 263.693 320.145 263.446 319.878C263.199 319.608 262.86 319.473 262.428 319.473C262.132 319.473 261.869 319.537 261.639 319.665C261.412 319.793 261.232 319.98 261.098 320.227C260.968 320.472 260.902 320.767 260.902 321.114ZM270.621 325.132C269.976 325.132 269.421 324.994 268.955 324.719C268.492 324.44 268.134 324.05 267.881 323.547C267.631 323.041 267.506 322.449 267.506 321.77C267.506 321.099 267.631 320.509 267.881 319.997C268.134 319.486 268.486 319.087 268.938 318.8C269.392 318.513 269.923 318.369 270.531 318.369C270.901 318.369 271.259 318.43 271.605 318.553C271.952 318.675 272.263 318.866 272.539 319.128C272.814 319.389 273.031 319.729 273.191 320.146C273.35 320.561 273.429 321.065 273.429 321.659V322.111H268.226V321.156H272.181C272.181 320.821 272.112 320.524 271.976 320.266C271.84 320.004 271.648 319.798 271.401 319.648C271.156 319.497 270.869 319.422 270.54 319.422C270.182 319.422 269.869 319.51 269.602 319.686C269.338 319.859 269.134 320.087 268.989 320.368C268.847 320.646 268.776 320.949 268.776 321.276V322.021C268.776 322.459 268.852 322.831 269.006 323.138C269.162 323.445 269.379 323.679 269.658 323.841C269.936 324 270.262 324.08 270.634 324.08C270.875 324.08 271.095 324.045 271.294 323.977C271.493 323.906 271.665 323.801 271.81 323.662C271.955 323.523 272.066 323.351 272.142 323.146L273.348 323.364C273.252 323.719 273.078 324.03 272.828 324.297C272.581 324.561 272.27 324.767 271.895 324.915C271.523 325.06 271.098 325.132 270.621 325.132Z" fill="#888888"/>
<path d="M294.579 316.273H295.892V322.46C295.892 323.02 295.781 323.499 295.559 323.896C295.341 324.294 295.032 324.598 294.635 324.808C294.237 325.016 293.771 325.119 293.237 325.119C292.746 325.119 292.304 325.03 291.912 324.851C291.523 324.672 291.214 324.412 290.987 324.071C290.763 323.727 290.65 323.31 290.65 322.818H291.959C291.959 323.06 292.014 323.268 292.125 323.445C292.238 323.621 292.393 323.759 292.589 323.858C292.788 323.955 293.015 324.003 293.271 324.003C293.55 324.003 293.785 323.945 293.979 323.828C294.175 323.709 294.324 323.534 294.426 323.304C294.528 323.074 294.579 322.793 294.579 322.46V316.273ZM302.852 322.286V318.455H304.131V325H302.878V323.866H302.81C302.659 324.216 302.418 324.507 302.085 324.74C301.756 324.97 301.345 325.085 300.854 325.085C300.433 325.085 300.061 324.993 299.737 324.808C299.416 324.621 299.164 324.344 298.979 323.977C298.797 323.611 298.706 323.158 298.706 322.618V318.455H299.98V322.464C299.98 322.911 300.104 323.266 300.351 323.53C300.598 323.794 300.919 323.926 301.314 323.926C301.553 323.926 301.79 323.866 302.026 323.747C302.264 323.628 302.462 323.447 302.618 323.206C302.777 322.964 302.855 322.658 302.852 322.286ZM308.117 316.273V325H306.843V316.273H308.117ZM311.637 327.455C311.446 327.455 311.273 327.439 311.117 327.408C310.96 327.379 310.844 327.348 310.767 327.314L311.074 326.27C311.307 326.332 311.514 326.359 311.696 326.351C311.878 326.342 312.039 326.274 312.178 326.146C312.32 326.018 312.445 325.81 312.553 325.52L312.71 325.085L310.316 318.455H311.679L313.337 323.534H313.405L315.063 318.455H316.431L313.733 325.874C313.608 326.214 313.449 326.503 313.256 326.739C313.063 326.977 312.833 327.156 312.566 327.276C312.298 327.395 311.989 327.455 311.637 327.455Z" fill="#888888"/>
<path d="M334.751 325H333.353L336.494 316.273H338.015L341.156 325H339.758L337.29 317.858H337.222L334.751 325ZM334.985 321.582H339.519V322.69H334.985V321.582ZM347.46 322.286V318.455H348.738V325H347.485V323.866H347.417C347.267 324.216 347.025 324.507 346.693 324.74C346.363 324.97 345.953 325.085 345.461 325.085C345.041 325.085 344.669 324.993 344.345 324.808C344.024 324.621 343.771 324.344 343.586 323.977C343.404 323.611 343.314 323.158 343.314 322.618V318.455H344.588V322.464C344.588 322.911 344.711 323.266 344.958 323.53C345.206 323.794 345.527 323.926 345.922 323.926C346.16 323.926 346.397 323.866 346.633 323.747C346.872 323.628 347.069 323.447 347.225 323.206C347.385 322.964 347.463 322.658 347.46 322.286ZM354.195 327.591C353.675 327.591 353.227 327.523 352.852 327.386C352.48 327.25 352.176 327.07 351.94 326.845C351.705 326.621 351.528 326.375 351.412 326.108L352.507 325.656C352.584 325.781 352.686 325.913 352.814 326.053C352.945 326.195 353.121 326.315 353.342 326.415C353.567 326.514 353.855 326.564 354.207 326.564C354.69 326.564 355.089 326.446 355.405 326.21C355.72 325.977 355.878 325.605 355.878 325.094V323.807H355.797C355.72 323.946 355.609 324.101 355.464 324.271C355.322 324.442 355.126 324.589 354.876 324.714C354.626 324.839 354.301 324.902 353.901 324.902C353.384 324.902 352.918 324.781 352.503 324.54C352.091 324.295 351.764 323.936 351.523 323.462C351.284 322.984 351.165 322.398 351.165 321.702C351.165 321.006 351.283 320.409 351.518 319.912C351.757 319.415 352.084 319.034 352.499 318.77C352.913 318.503 353.384 318.369 353.909 318.369C354.315 318.369 354.643 318.438 354.893 318.574C355.143 318.707 355.338 318.864 355.477 319.043C355.619 319.222 355.729 319.379 355.805 319.516H355.899V318.455H357.148V325.145C357.148 325.707 357.017 326.169 356.756 326.53C356.494 326.891 356.141 327.158 355.695 327.331C355.251 327.504 354.751 327.591 354.195 327.591ZM354.182 323.845C354.548 323.845 354.858 323.76 355.111 323.589C355.366 323.416 355.56 323.169 355.69 322.848C355.824 322.524 355.891 322.136 355.891 321.685C355.891 321.244 355.825 320.857 355.695 320.521C355.564 320.186 355.372 319.925 355.119 319.737C354.866 319.547 354.554 319.452 354.182 319.452C353.798 319.452 353.479 319.551 353.223 319.75C352.967 319.946 352.774 320.213 352.643 320.551C352.516 320.889 352.452 321.267 352.452 321.685C352.452 322.114 352.517 322.49 352.648 322.814C352.778 323.138 352.972 323.391 353.227 323.572C353.486 323.754 353.804 323.845 354.182 323.845Z" fill="#888888"/>
</g>
<g clip-path="url(#clip3_3603_2)">
<g filter="url(#filter0_d_3603_2)">
<path fill-rule="evenodd" clip-rule="evenodd" d="M182 66C178.134 66 175 69.134 175 73V88.2609C175 92.1269 178.134 95.2609 182 95.2609L209.269 95.2609L215.117 107.499C215.479 108.257 216.559 108.257 216.922 107.499L222.769 95.2609L249 95.2609C252.866 95.2609 256 92.1269 256 88.2609V73C256 69.134 252.866 66 249 66H182Z" fill="white"/>
</g>
<path d="M194.819 81.0824V82.1903H190.949V81.0824H194.819ZM200.193 87.0909V76.1818H200.892V87.0909H200.193ZM202.379 79.5653C202.333 79.1619 202.146 78.8494 201.816 78.6278C201.487 78.4034 201.072 78.2912 200.572 78.2912C200.214 78.2912 199.904 78.348 199.643 78.4616C199.382 78.5724 199.179 78.7259 199.034 78.9219C198.892 79.1151 198.821 79.3352 198.821 79.5824C198.821 79.7898 198.869 79.9687 198.966 80.1193C199.065 80.2699 199.194 80.3963 199.353 80.4986C199.515 80.598 199.689 80.6818 199.873 80.75C200.058 80.8153 200.235 80.8693 200.406 80.9119L201.258 81.1335C201.537 81.2017 201.822 81.294 202.115 81.4105C202.407 81.527 202.679 81.6804 202.929 81.8707C203.179 82.0611 203.38 82.2969 203.534 82.5781C203.69 82.8594 203.768 83.196 203.768 83.5881C203.768 84.0824 203.64 84.5213 203.385 84.9048C203.132 85.2884 202.764 85.5909 202.281 85.8125C201.801 86.0341 201.22 86.1449 200.538 86.1449C199.885 86.1449 199.319 86.0412 198.842 85.8338C198.365 85.6264 197.991 85.3324 197.721 84.9517C197.451 84.5682 197.302 84.1136 197.274 83.5881H198.595C198.62 83.9034 198.723 84.1662 198.902 84.3764C199.083 84.5838 199.315 84.7386 199.596 84.8409C199.88 84.9403 200.191 84.9901 200.529 84.9901C200.902 84.9901 201.233 84.9318 201.522 84.8153C201.815 84.696 202.045 84.5312 202.213 84.321C202.38 84.108 202.464 83.8594 202.464 83.5753C202.464 83.3168 202.39 83.1051 202.243 82.9403C202.098 82.7756 201.9 82.6392 201.65 82.5312C201.403 82.4233 201.123 82.3281 200.811 82.2457L199.779 81.9645C199.081 81.7741 198.527 81.4943 198.118 81.125C197.711 80.7557 197.508 80.267 197.508 79.6591C197.508 79.1562 197.645 78.7173 197.917 78.3423C198.19 77.9673 198.559 77.6761 199.025 77.4688C199.491 77.2585 200.017 77.1534 200.602 77.1534C201.193 77.1534 201.714 77.2571 202.166 77.4645C202.62 77.6719 202.978 77.9574 203.24 78.321C203.501 78.6818 203.637 79.0966 203.649 79.5653H202.379ZM209.533 77.2727V86H208.212V78.5938H208.161L206.073 79.9574V78.696L208.251 77.2727H209.533ZM213.247 86.081C213.014 86.081 212.814 85.9986 212.646 85.8338C212.478 85.6662 212.395 85.4645 212.395 85.2287C212.395 84.9957 212.478 84.7969 212.646 84.6321C212.814 84.4645 213.014 84.3807 213.247 84.3807C213.48 84.3807 213.68 84.4645 213.848 84.6321C214.015 84.7969 214.099 84.9957 214.099 85.2287C214.099 85.3849 214.059 85.5284 213.98 85.6591C213.903 85.7869 213.801 85.8892 213.673 85.9659C213.545 86.0426 213.403 86.081 213.247 86.081ZM216.605 84.2955V83.2301L220.377 77.2727H221.216V78.8409H220.684L217.986 83.1108V83.179H223.155V84.2955H216.605ZM220.743 86V83.9716L220.752 83.4858V77.2727H222V86H220.743ZM225.64 86V85.0455L228.593 81.9858C228.909 81.6534 229.169 81.3622 229.373 81.1122C229.581 80.8594 229.735 80.6193 229.838 80.392C229.94 80.1648 229.991 79.9233 229.991 79.6676C229.991 79.3778 229.923 79.1278 229.787 78.9176C229.65 78.7045 229.464 78.5412 229.228 78.4276C228.993 78.3111 228.727 78.2528 228.431 78.2528C228.119 78.2528 227.846 78.3168 227.613 78.4446C227.38 78.5724 227.201 78.7528 227.076 78.9858C226.951 79.2187 226.889 79.4915 226.889 79.804H225.632C225.632 79.2727 225.754 78.8082 225.998 78.4105C226.243 78.0128 226.578 77.7045 227.004 77.4858C227.43 77.2642 227.914 77.1534 228.457 77.1534C229.005 77.1534 229.488 77.2628 229.906 77.4815C230.326 77.6974 230.654 77.9929 230.89 78.3679C231.126 78.7401 231.244 79.1605 231.244 79.6293C231.244 79.9531 231.183 80.2699 231.061 80.5795C230.941 80.8892 230.733 81.2344 230.434 81.6151C230.136 81.9929 229.721 82.4517 229.19 82.9915L227.456 84.8068V84.8707H231.385V86H225.64ZM237.038 86.1193C236.453 86.1193 235.93 86.0185 235.47 85.8168C235.012 85.6151 234.65 85.3352 234.383 84.9773C234.119 84.6165 233.977 84.1989 233.957 83.7244H235.295C235.312 83.983 235.399 84.2074 235.555 84.3977C235.714 84.5852 235.922 84.7301 236.177 84.8324C236.433 84.9347 236.717 84.9858 237.029 84.9858C237.373 84.9858 237.677 84.9261 237.941 84.8068C238.208 84.6875 238.417 84.5213 238.568 84.3082C238.718 84.0923 238.794 83.8438 238.794 83.5625C238.794 83.2699 238.718 83.0128 238.568 82.7912C238.42 82.5668 238.203 82.3906 237.916 82.2628C237.632 82.1349 237.288 82.071 236.885 82.071H236.147V80.9972H236.885C237.208 80.9972 237.493 80.9389 237.737 80.8224C237.984 80.706 238.177 80.544 238.316 80.3366C238.456 80.1264 238.525 79.8807 238.525 79.5994C238.525 79.3295 238.464 79.0952 238.342 78.8963C238.223 78.6946 238.052 78.5369 237.831 78.4233C237.612 78.3097 237.353 78.2528 237.055 78.2528C236.771 78.2528 236.505 78.3054 236.258 78.4105C236.014 78.5128 235.815 78.6605 235.662 78.8537C235.508 79.044 235.426 79.2727 235.414 79.5398H234.14C234.154 79.0682 234.294 78.6534 234.558 78.2955C234.825 77.9375 235.177 77.6577 235.615 77.456C236.052 77.2543 236.538 77.1534 237.072 77.1534C237.632 77.1534 238.115 77.2628 238.521 77.4815C238.93 77.6974 239.245 77.9858 239.467 78.3466C239.691 78.7074 239.802 79.1023 239.799 79.5312C239.802 80.0199 239.666 80.4347 239.39 80.7756C239.118 81.1165 238.754 81.3452 238.299 81.4616V81.5298C238.879 81.6179 239.328 81.848 239.646 82.2202C239.967 82.5923 240.126 83.054 240.123 83.6051C240.126 84.0852 239.993 84.5156 239.723 84.8963C239.456 85.277 239.091 85.5767 238.627 85.7955C238.164 86.0114 237.635 86.1193 237.038 86.1193Z" fill="#212425"/>
</g>
<defs>
<filter id="filter0_d_3603_2" x="127" y="20" width="177" height="138.067" filterUnits="userSpaceOnUse" color-interpolation-filters="sRGB">
<feFlood flood-opacity="0" result="BackgroundImageFix"/>
<feColorMatrix in="SourceAlpha" type="matrix" values="0 0 0 0 0 0 0 0 0 0 0 0 0 0 0 0 0 0 127 0" result="hardAlpha"/>
<feOffset dy="2"/>
<feGaussianBlur stdDeviation="24"/>
<feColorMatrix type="matrix" values="0 0 0 0 0 0 0 0 0 0 0 0 0 0 0 0 0 0 0.12 0"/>
<feBlend mode="normal" in2="BackgroundImageFix" result="effect1_dropShadow_3603_2"/>
<feBlend mode="normal" in="SourceGraphic" in2="effect1_dropShadow_3603_2" result="shape"/>
</filter>
<linearGradient id="paint0_linear_3603_2" x1="195" y1="109" x2="195" y2="291" gradientUnits="userSpaceOnUse">
<stop stop-color="#5D5D5D" stop-opacity="0.01"/>
<stop offset="0.327598" stop-color="#5D5D5D" stop-opacity="0.419444"/>
<stop offset="1" stop-color="#5D5D5D" stop-opacity="0.01"/>
<stop offset="1" stop-color="#5D5D5D" stop-opacity="0.01"/>
</linearGradient>
<linearGradient id="paint1_linear_3603_2" x1="49" y1="73" x2="49" y2="291" gradientUnits="userSpaceOnUse">
<stop stop-color="#5D5D5D" stop-opacity="0.166084"/>
<stop offset="1" stop-color="#5D5D5D" stop-opacity="0.01"/>
</linearGradient>
<clipPath id="clip0_3603_2">
<rect width="358" height="36" fill="white"/>
</clipPath>
<clipPath id="clip1_3603_2">
<rect width="35" height="233" fill="white" transform="translate(0 66)"/>
</clipPath>
<clipPath id="clip2_3603_2">
<rect width="309" height="14" fill="white" transform="translate(49 313)"/>
</clipPath>
<clipPath id="clip3_3603_2">
<rect width="81" height="42" fill="white" transform="translate(175 66)"/>
</clipPath>
</defs>
</svg>
