<svg class="svg-icon" style="width: 1em; height: 1em;vertical-align: middle;fill: currentColor;overflow: hidden;" viewBox="0 0 1024 1024" version="1.1" xmlns="http://www.w3.org/2000/svg"><path d="M736.233 118.192H287.31L62.848 506.971 287.31 895.749h448.923l224.461-388.778-224.46-388.779zM714.634 858.34H308.908L106.046 506.971l202.863-351.368h405.726l202.862 351.369-202.863 351.367z"  /><path d="M702.028 467.58c-1.821 0-3.613 0.122-5.377 0.335l-57.532-89.132c9.022-11.031 14.445-25.116 14.445-40.445 0-35.285-28.706-63.993-63.992-63.993s-63.993 28.708-63.993 63.993c0 20.232 9.448 38.289 24.153 50.024L432.362 623.29a57.62 57.62 0 0 0-6.605-0.392 57.307 57.307 0 0 0-12.383 1.36l-56.376-88.752a44.319 44.319 0 0 0 6.636-23.387c0-24.598-19.941-44.54-44.54-44.54s-44.538 19.942-44.538 44.54 19.941 44.539 44.539 44.539c1.71 0 3.397-0.107 5.058-0.294l56.384 88.765c-7.465 9.655-11.918 21.757-11.918 34.907 0 31.556 25.582 57.138 57.138 57.138s57.138-25.582 57.138-57.138c0-15.255-5.99-29.103-15.732-39.35l119.125-238.438a63.817 63.817 0 0 0 20.238-2.215L663.952 489a44.33 44.33 0 0 0-6.463 23.118c0 24.598 19.941 44.539 44.539 44.539s44.539-19.941 44.539-44.54c0-24.596-19.941-44.537-44.539-44.537zM564.486 338.339c0-13.832 11.253-25.085 25.086-25.085s25.085 11.253 25.085 25.085-11.253 25.085-25.085 25.085-25.086-11.254-25.086-25.085z"  /></svg>