<svg class="svg-icon" style="width: 1em; height: 1em;vertical-align: middle;fill: currentColor;overflow: hidden;" viewBox="0 0 1024 1024" version="1.1" xmlns="http://www.w3.org/2000/svg"><path d="M756.192653 969.665306c-119.431837 0-208.979592-73.142857-208.979592-120.267755s89.861224-120.267755 208.979592-120.267755 208.979592 73.142857 208.979592 120.267755-89.547755 120.267755-208.979592 120.267755z m0-198.530612c-104.489796 0-167.183673 62.693878-167.183673 78.471837s63.320816 78.471837 167.183673 78.471836 167.183673-62.693878 167.183674-78.471836-63.007347-78.576327-167.183674-78.576327z"  /><path d="M756.192653 921.80898a72.306939 72.306939 0 1 1 72.306939-72.306939 72.411429 72.411429 0 0 1-72.306939 72.306939z m0-123.820409a51.40898 51.40898 0 1 0 51.40898 51.40898 51.513469 51.513469 0 0 0-51.40898-51.40898z"  /><path d="M518.269388 956.081633h-438.857143a20.897959 20.897959 0 0 1-20.897959-20.89796V250.77551a20.897959 20.897959 0 0 1 5.955918-14.524081l177.632653-182.857143a20.897959 20.897959 0 0 1 14.942041-6.373878h574.693878a20.897959 20.897959 0 0 1 20.897959 20.897959v593.815511a20.897959 20.897959 0 0 1-41.795919 0V88.816327H265.822041L100.310204 259.239184V914.285714h417.959184a20.897959 20.897959 0 0 1 0 41.795919z"  /><path d="M251.820408 282.122449h-156.734694a20.897959 20.897959 0 0 1 0-41.795918h135.836735V94.040816a20.897959 20.897959 0 0 1 41.795918 0v167.183674a20.897959 20.897959 0 0 1-20.897959 20.897959zM471.24898 720.979592a188.081633 188.081633 0 0 1-188.081633-188.081633 191.947755 191.947755 0 0 1 1.462857-23.928163 20.897959 20.897959 0 1 1 41.795918 5.22449A151.614694 151.614694 0 0 0 324.963265 532.897959a146.285714 146.285714 0 1 0 146.285715-146.285714 148.58449 148.58449 0 0 0-25.495511 2.194286 20.897959 20.897959 0 1 1-6.896326-41.16898 191.634286 191.634286 0 0 1 32.391837-2.821224 188.081633 188.081633 0 0 1 0 376.163265z"  /><path d="M251.820408 522.44898a20.897959 20.897959 0 0 1-20.897959-20.89796 208.979592 208.979592 0 0 1 208.979592-208.979591 20.897959 20.897959 0 0 1 0 41.795918 167.183673 167.183673 0 0 0-167.183674 167.183673 20.897959 20.897959 0 0 1-20.897959 20.89796z"  /><path d="M439.902041 522.44898a20.897959 20.897959 0 0 1-20.897959-20.89796V313.469388a20.897959 20.897959 0 0 1 41.795918 0v188.081632a20.897959 20.897959 0 0 1-20.897959 20.89796z"  /><path d="M439.902041 522.44898h-188.081633a20.897959 20.897959 0 0 1 0-41.795919h188.081633a20.897959 20.897959 0 0 1 0 41.795919z"  /></svg>