<svg width="41" height="41" viewBox="0 0 41 41" fill="none" xmlns="http://www.w3.org/2000/svg">
<path d="M11.7884 20.4723C11.7884 17.2169 9.14948 14.5779 5.89421 14.5779C2.63893 14.5779 0 17.2169 0 20.4723V35.1057C0 38.3611 2.63893 41.0001 5.89421 41.0001C9.14948 41.0001 11.7884 38.3611 11.7884 35.1057V20.4723Z" fill="black"/>
<path d="M20.4723 0.000406265C17.2169 0.000406265 14.5779 2.63933 14.5779 5.89461C14.5779 9.14989 17.2169 11.7888 20.4723 11.7888L35.1057 11.7888C38.3611 11.7888 41.0001 9.14989 41.0001 5.89461C41.0001 2.63933 38.3611 0.000406265 35.1057 0.000406265L20.4723 0.000406265Z" fill="black"/>
<path d="M5.92222 11.8444C9.19298 11.8444 11.8444 9.19298 11.8444 5.92222C11.8444 2.65147 9.19298 0 5.92222 0C2.65147 0 0 2.65147 0 5.92222C0 9.19298 2.65147 11.8444 5.92222 11.8444Z" fill="black"/>
<path d="M20.9557 26.4223C24.2264 26.4223 26.8779 23.7709 26.8779 20.5001C26.8779 17.2293 24.2264 14.5779 20.9557 14.5779C17.6849 14.5779 15.0334 17.2293 15.0334 20.5001C15.0334 23.7709 17.6849 26.4223 20.9557 26.4223Z" fill="black"/>
</svg>
