<svg width="41" height="41" viewBox="0 0 41 41" fill="none" xmlns="http://www.w3.org/2000/svg">
<path d="M11.7884 20.4723C11.7884 17.2169 9.14948 14.5779 5.89421 14.5779C2.63893 14.5779 0 17.2169 0 20.4723V35.1057C0 38.3611 2.63893 41.0001 5.89421 41.0001C9.14948 41.0001 11.7884 38.3611 11.7884 35.1057V20.4723Z" fill="white"/>
<path d="M20.4721 0.000406265C17.2167 0.000406265 14.5776 2.63933 14.5776 5.89461C14.5776 9.14989 17.2167 11.7888 20.4721 11.7888L35.1054 11.7888C38.3608 11.7888 40.9999 9.14989 40.9999 5.89461C40.9999 2.63933 38.3608 0.000406265 35.1054 0.000406265L20.4721 0.000406265Z" fill="white"/>
<path d="M5.92222 11.8444C9.19298 11.8444 11.8444 9.19298 11.8444 5.92222C11.8444 2.65147 9.19298 0 5.92222 0C2.65147 0 0 2.65147 0 5.92222C0 9.19298 2.65147 11.8444 5.92222 11.8444Z" fill="white"/>
<path d="M20.9554 26.4223C24.2262 26.4223 26.8776 23.7709 26.8776 20.5001C26.8776 17.2293 24.2262 14.5779 20.9554 14.5779C17.6847 14.5779 15.0332 17.2293 15.0332 20.5001C15.0332 23.7709 17.6847 26.4223 20.9554 26.4223Z" fill="white"/>
</svg>
